<svg xmlns="http://www.w3.org/2000/svg" xmlns:xlink="http://www.w3.org/1999/xlink" width="2000" zoomAndPan="magnify" viewBox="0 0 1500 1499.999933" height="2000" preserveAspectRatio="xMidYMid meet" version="1.0"><style>.brand-color{fill:#152240;}</style><metadata><c2pa:manifest xmlns:c2pa="http://c2pa.org/manifest">AABCHWp1bWIAAAAeanVtZGMycGEAEQAQgAAAqgA4m3EDYzJwYQAAAEH3anVtYgAAAEdqdW1kYzJtYQARABCAAACqADibcQN1cm46YzJwYToxZTM2ZjY3Ny01OGIzLTRiMGQtODA4ZS01M2E4Mzc4ZjE4ZmIAAAAB5Gp1bWIAAAApanVtZGMyYXMAEQAQgAAAqgA4m3EDYzJwYS5hc3NlcnRpb25zAAAAAO5qdW1iAAAAQWp1bWRjYm9yABEAEIAAAKoAOJtxE2MycGEuYWN0aW9ucy52MgAAAAAYYzJzaOhRt+PRX48YFVDHbeVb2lsAAAClY2JvcqFnYWN0aW9uc4GjZmFjdGlvbmxjMnBhLmNyZWF0ZWRtc29mdHdhcmVBZ2VudGhDYW52YSBBSXFkaWdpdGFsU291cmNlVHlwZXhTaHR0cDovL2N2LmlwdGMub3JnL25ld3Njb2Rlcy9kaWdpdGFsc291cmNldHlwZS9jb21wb3NpdGVXaXRoVHJhaW5lZEFsZ29yaXRobWljTWVkaWEAAADFanVtYgAAAEBqdW1kY2JvcgARABCAAACqADibcRNjMnBhLmhhc2guZGF0YQAAAAAYYzJzaIfM1pQnSPP0dpI8g26k/t0AAAB9Y2JvcqVqZXhjbHVzaW9uc4GiZXN0YXJ0GQETZmxlbmd0aBlYKGRuYW1lbmp1bWJmIG1hbmlmZXN0Y2FsZ2ZzaGEyNTZkaGFzaFggUeFoqj7d3cregdrjtpdZ6nkmLs4R9eymYgR9Ivn9ApJjcGFkSQAAAAAAAAAAAAAAAgtqdW1iAAAAJ2p1bWRjMmNsABEAEIAAAKoAOJtxA2MycGEuY2xhaW0udjIAAAAB3GNib3Knamluc3RhbmNlSUR4LHhtcDppaWQ6MDg2OTEzOGEtM2FmMC00ZTMwLTkxYmEtN2UwZjA4Y2VmZDVldGNsYWltX2dlbmVyYXRvcl9pbmZvo2RuYW1lZ2MycGEtcnNndmVyc2lvbmUwLjAuMHdvcmcuY29udGVudGF1dGguYzJwYV9yc2UwLjAuMGlzaWduYXR1cmV4TXNlbGYjanVtYmY9L2MycGEvdXJuOmMycGE6MWUzNmY2NzctNThiMy00YjBkLTgwOGUtNTNhODM3OGYxOGZiL2MycGEuc2lnbmF0dXJlcmNyZWF0ZWRfYXNzZXJ0aW9uc4GiY3VybHgpc2VsZiNqdW1iZj1jMnBhLmFzc2VydGlvbnMvYzJwYS5oYXNoLmRhdGFkaGFzaFggHn4sCKChtQQX3iJk9Km2E4hbrT3Xzl0ir/X0q2DLHzxzZ2F0aGVyZWRfYXNzZXJ0aW9uc4GiY3VybHgqc2VsZiNqdW1iZj1jMnBhLmFzc2VydGlvbnMvYzJwYS5hY3Rpb25zLnYyZGhhc2hYICUPTY3SsgtIZB7Q9YyT+/iS8E/hFxVuaF0T9oqc5gHsaGRjOnRpdGxlZTYuc3ZnY2FsZ2ZzaGEyNTYAAD25anVtYgAAAChqdW1kYzJjcwARABCAAACqADibcQNjMnBhLnNpZ25hdHVyZQAAAD2JY2JvctKEWRKBogE4Jhghg1kFPzCCBTswggMjoAMCAQICEQCF9oZ39PVW0NOtXnFrG0h+MA0GCSqGSIb3DQEBDQUAMCIxIDAeBgNVBAMTF1NpZ25pbmcgSW50ZXJtZWRpYXRlIENBMB4XDTI2MDMyMTIzNTEwNloXDTI2MDMyOTIzNTEwNlowODEOMAwGA1UEChMFQ2FudmExDjAMBgNVBAsTBUNhbnZhMRYwFAYDVQQDEw1DYW52YSBTaWduaW5nMIICIjANBgkqhkiG9w0BAQEFAAOCAg8AMIICCgKCAgEA4rUPA2N4kKAcY0U0ygStgRPVARuCWw3P3VQO7/VdAANhgv+WEI7jYGEdtPW7dAVus6k/pILv0mxOiXU/+g7OOAg6RtKNqV77xKAIOD0UuKn7aDxYNAqytjhAJN48Vd8WuR6rq8feArErNYAXpZXAHtfxLp8O6cwrXFADTpoj6NsniBjpRTS3h+cTUQX+bUoLgwhCctKAvb+E3YpDiRSeOHsJumGMEPzUbtmHMN+6drUSHu61RQCkFYuSMgbXDSPisJkRQUlVF1F1MG41mK4/ukw1KNDyBZ3qEv9F9rMer5wAAO/DL+82qG7294eZQ3eCdjPpA4C2rqgaALKKFOSnpwtqLKyvPzJZ1i9XeBItQjUUXdGwlQBryWPOrsb/tI5xB4IcGdnkp7CLG8cfotoqWYWkWHjDYTeYlwjZNaldl/dMbm3vH0yTzu3eKpYgJjBEs94cJQLw00JNuDvzT7u85OVNTSyQe30E4fd9jW69mN6DKIi+SSYIk89WyndW5cuKMM23qpfS/D2pYSIZKca4RHUe/1RuzdWS7myiYcXGOPx1gL1zai0QtF383hBVdRV5CcCBulsHwltFnJqM+v+ee+vhblx056/eyaKRZFcsonWqdeYDqVhfDcBsseblPRIic7kVLesFi9qRLXMnVMR2GxbupqpyGBt2rNvKpEdtm0kCAwEAAaNWMFQwDgYDVR0PAQH/BAQDAgeAMBMGA1UdJQQMMAoGCCsGAQUFBwMEMAwGA1UdEwEB/wQCMAAwHwYDVR0jBBgwFoAUHnfVXq+C+As5Cibf/oX1s0sHO5UwDQYJKoZIhvcNAQENBQADggIBABTH5rINCWEfh9qgtjkyBvZJWT3zQj9t7TBhWlPqCUafjzkqCfSzN0TLAz/6PAlUk/DdQfhIqMNk8mH1WRAlX8ddbWc365di4PRlfEZqGJ4ygYuihA/f9oxPAmKfxFvoe7MBITM3wXg3Bq60hTYRR3Ofd+ZYwMzgCbL9r2/RFKPfOdnVJuIq/kMMZPzM/ijEBXKNwaPREj4+cEdFqiHnGInhXL069OKCeZSPDItWBjK6eJl1cFISednP/6edZxe7vmjEFy2JoCjJCUUVgsp5B29TeqvZ9xCFb/BLRrbpIlkBPXUARzcLqUnyjTdQjRpOCG1TAzl9ceE/Hd67D1lvW97C9xswYnVOaJej9IjNeRy9RwVBFRh3onFZnnUSA/fN2bC997gdNarqGccFULohpi7nPPNxsKwQrt5KCY0YCmH1qdcGziuh3J43S09DhbMilVYXoO5og5Fm6rnaG7nevf2gxutaOjNUFUjlfyQ34BGdRuXp44zPthax7z/hYXh42RytJX3eGNV2oPm33F2N3yO/SuYRo/Vi+filks4FsUZb/S5wVxwolYuix4fwY4H0XzXAxrAJx81X+JJnq1E99FbuI1/0NLsBkFpTyCvlP0E2gMbtDPAZDdBJ/OrxlR6Ek0TDPgfQh/h+jCxkX0s8C6/hZ0Q8e0i968h3KfppyLVYWQboMIIG5DCCBMygAwIBAgIUNN5FqgUkXrbFtk6LWpVFrO65RW0wDQYJKoZIhvcNAQELBQAwbTELMAkGA1UEBhMCQVUxDDAKBgNVBAgTA05TVzEPMA0GA1UEBxMGU3lkbmV5MRMwEQYDVQQKEwpDYW52YSBQcm9kMRAwDgYDVQQLEwdTaWduaW5nMRgwFgYDVQQDEw9TaWduaW5nIENBIFByb2QwHhcNMjYwMzE4MDUzOTI0WhcNMjYwNDE3MDUzOTU0WjAiMSAwHgYDVQQDExdTaWduaW5nIEludGVybWVkaWF0ZSBDQTCCAiIwDQYJKoZIhvcNAQEBBQADggIPADCCAgoCggIBAMF6mj5R4a2N0xlLh8hh2b47gkUP1kJLehxzUBlzcYNkG2PjbPFe2PlZJVePDmNfxEl/vTbie+6zC8sT0QyQs2lw/mjL8fibs2rsPXpJk3IpZpa86QAkEb3d8KggJ42t08LsGVJsG3W+VQUhw2uXmTNK0DeQ+ZW5PJTPSqp0W3aUuxopfixljrKhuLHVkJXQYMlCY76ZA2TdZK6FaM549/WRPcHoUj2ch1nswLsJYyBMRO5aDdIt+TCPhrZ3McE5V2K5k+JNKf5PCy0H0clh5DGAx4fal8G6ejes/K44i951B41m2BNkxA1DnanXvgxlIPwQUupJXZ1mpdJnZdVG1GKl6/Cw5E3ZCg0TDODC9LVSiCN4vX+5zKZsmdLBemdAi6+S5R+u0v4PDDhPfndgCXr6bXQQ8zGcss9b41u2Kdk58pktlkyNZDFdNEY33KHwO8QJ4corwGSogpJ6xUgG2IjeuyHzv9ITK1ZLfZ8WZpfTlKC8eUzO3OKnFg288dw/OPNtuP9IJCwqaVGp2KTTsa1NHYTOqgVyHbCYgRzPG8LP9STqTHR02jdib3j0De5jtXveZPu7eLEPAOwhATBkIQj/1NwzOKLihJw8KyY+mEYxNsltdYOwzXafyudFcJNQEYGFXrckExImWbiHds+rST7HNOmjKhfH+02HwC2qhLjtAgMBAAGjggHFMIIBwTAOBgNVHQ8BAf8EBAMCAQYwEgYDVR0TAQH/BAgwBgEB/wIBADAdBgNVHQ4EFgQUHnfVXq+C+As5Cibf/oX1s0sHO5UwHwYDVR0jBBgwFoAUEVVux6d1aMuNR/onO3uuB9JaAUIwgdcGCCsGAQUFBwEBBIHKMIHHMEwGCCsGAQUFBzABhkBodHRwczovL3BraS5jYW52YS1pbnRlcm5hbC5jb20vdjEvcGtpL2NhbnZhLXByb2QvbDEvc2lnbmluZy9vY3NwMHcGCCsGAQUFBzAChmtodHRwczovL3BraS5jYW52YS1pbnRlcm5hbC5jb20vdjEvcGtpL2NhbnZhLXByb2QvbDEvc2lnbmluZy9pc3N1ZXIvZmZhODJlNDAtMmUyYi1iNjhlLTNhYTItYTYzNWJjNDUzZWNjL2RlcjCBgAYDVR0fBHkwdzB1oHOgcYZvaHR0cHM6Ly9wa2kuY2FudmEtaW50ZXJuYWwuY29tL3YxL3BraS9jYW52YS1wcm9kL2wxL3NpZ25pbmcvaXNzdWVyL2ZmYTgyZTQwLTJlMmItYjY4ZS0zYWEyLWE2MzViYzQ1M2VjYy9jcmwvZGVyMA0GCSqGSIb3DQEBCwUAA4ICAQBAQRJDkcyUoQ9IKtBjti1/UaE5JROVJP9/YCb6KP//HcrWl2ctobxV2a4ex57bqrBiwHVDsjyKDweypnnnnIX0jKpqh+inCdlLrePmJe6K8OAL9BxajjixZsH1fw3y7yHRLD5A4Yfr+ogGsQUe16Zq2VXlp3BSgTAV0/CQcNBAdTS+CY7NHcEogWL994RVv8ld+xivcEnU8Sn+lGiK1tq1aYqgk30dw72XaGnE2iTCe51QlTdpozZL7SbFoGGrm/XifaVjx/1jiraLJbPac7L+jA8GGRB0foDzeubgbC5g1Stl3nC/g4pTP6ayn39KkE1qV4Rip4/k8Kn1ktrclnJhqcY5yfU7ByQyn1dCqsbReKCkvCDus8jeSOuLRYu4NhKIL9PJElE8f6BX40BdwRZzKzMxtXUhVchoCZT890h8Fc2SSJUVMbAJ/zynNgNlzfxex/MEvcE51UbB/53jrGijJX3K7XoYQ4n924bK1khNJdkv9GpyrSDVHYq6ESOj6S+FpNdi0vdaLq10b3Hv0+emQCziP+uqzdBAd4JtJdS8rqcwCJa3l+1NaMWiPqxh9VkZWzeu2VKaMztZmNAwpqW55iatXP/2NtiXmNcIwIMUIWKJyIhCzHlXcxWO9wk5d3DUMlnoxCuW2OwY/8jFDe0LORvepbuFUcle5e+cNSawVlkGSjCCBkYwggQuoAMCAQICEQDwUHcpJysnvjxnHTJW0yMdMA0GCSqGSIb3DQEBDQUAMIGBMQswCQYDVQQGEwJBVTETMBEGA1UECgwKQ2FudmEgUHJvZDEXMBUGA1UECwwOQ2xvdWQgUGxhdGZvcm0xDDAKBgNVBAgMA05TVzElMCMGA1UEAwwcQ2FudmEgUHJvZCBSb290IENBIEdsb2JhbCBHMjEPMA0GA1UEBwwGU3lkbmV5MB4XDTI2MDIxNDAzMjIwN1oXDTI2MDgxMzAzMjIwN1owbTELMAkGA1UEBhMCQVUxDDAKBgNVBAgTA05TVzEPMA0GA1UEBxMGU3lkbmV5MRMwEQYDVQQKEwpDYW52YSBQcm9kMRAwDgYDVQQLEwdTaWduaW5nMRgwFgYDVQQDEw9TaWduaW5nIENBIFByb2QwggIiMA0GCSqGSIb3DQEBAQUAA4ICDwAwggIKAoICAQCpg8y2jTW1J0IAv89OpFDo6iAg0BQ3C+tmmWEfRZyviSSxXRkbz+jTy2Z5qx1ZpKcOywXY795hD8kI6t1HHLs4kDzHA1NZ58jPjqIhNhkT01vLjfDQ92DLnIEAB9ac3CBjFjum2q0kKwDiMlWwHdfAHUIOGHS7o3EJjuMgX6sOdmbbZckzJD3FWMxBRCEoV/Ic4R/yeSkgz6LN4Yb/KS5NymsmzcjcHO3bcF6fV/nfcax7e8PoIX1JwEV8ULsfYkKowHtYcG1suI3zH2Ao/OxDIYeLFLykB5pVA9zKWl223oiovEygbRJ6ajM+1AMlG+CyxFIneQg8yjE7udgULNbc8bqilF8m2GPCBIs5OkA/9xzkOpW2LUMN79a8oJN9wWZPDZVZFNuH7GK9pjJEbk7sq+KAW/vpIwgsA+Upvcx2HWe01H7DeFJ0LEBL+2dOsb+BK9MWMqHc5a+yWaYVJLTVFjPtFv1QDKzkm4IziBm0IIeIRVbwgPh5VVXc5z/3tj7Jc/FjY+XqLq7Zilqel6w9dhOh86ar2hvqLBfYMOfoJrjwx0KfB+EFHbrEoDn7KqoqwFTqm8Y3sxG+jNqbunwnQG30mFttLhw8llrmuCHqOcq39rBA/nQIrOjFmSNQOlif0o4234dEws+aXYkHRwz+LuMz5UmraHlZuXx9oAidmwIDAQABo4HLMIHIMBIGA1UdEwEB/wQIMAYBAf8CAQEwHwYDVR0jBBgwFoAU6UnqmN2caVR9jX+PoWzIxynkrXMwHQYDVR0OBBYEFBFVbsendWjLjUf6Jzt7rgfSWgFCMA4GA1UdDwEB/wQEAwIBhjBiBgNVHR8EWzBZMFegVaBThlFodHRwOi8vZDF1YWRuMHBqc2loOG0uY2xvdWRmcm9udC5uZXQvY3JsLzBhMGFhNDUyLTlmMjctNDg2My1hZWRhLWVkOTc2ZjIwZDhiYi5jcmwwDQYJKoZIhvcNAQENBQADggIBABdm/Q5HRrsuEL+B+vwNc+GacQHck8DmbmVFIG8602Te7fejzViT3stNnAurNoTaP2Hhcige2trnV1E4FBG3CHcBQmmXU20AANM3nGeqxLDXXn0F5aXJo6BKsNnN6uyrFKdWM9bseK09tZRM9xIICAiJyfXo7uoIgfxhqV4BDmyLEP0dqxYz+r97Fck0FtBZxYijOEHHdol6SXRTw00sJkin1iBRB4HaQwTPXM3ZvmyA97DH7fvpR51LnuBePay/dvDW1FCbV+02sWFUOybHz30aYboCow0pRGRudwJSej0zPPmS8H2DuIv2bQqZs+YFVQtYh4JyBo93L6jwLiJJVumLeMGjMXE/Wu4VmFXWZk1H5eLDmYwIoW7v8pBzJyD86Z9xK2Aw4gIO1cX3//hYg5DgNIHwzn3DnVF1mlYMzN6dgv5LrZBCNArL8lkjlbJPg0fQQim0xxvMcwQVUbRkau7Og+ipmVatmua+vcPG0f8i1EPs/r8HyLxsN59KAI2fpqc51stWZcx0GaJ5Q2YU3aEb3I3dZe7FrLPYcJqJfbNMQ4CoIKDKbeCBV9R1QGXXd4I4l/d1lc4lBGvrtg42p+yCld6TlX+gusUYUFqKqrJMRfDdX/2KomW47EM2hBNrXKNdT0L7ffBQ1iT0DZYEQ2jHer/Gzy/aSGVpDJu6QR47oWNwYWRZKO8AAAAAAAAAAAAAAAAAAAAAAAAAAAAAAAAAAAAAAAAAAAAAAAAAAAAAAAAAAAAAAAAAAAAAAAAAAAAAAAAAAAAAAAAAAAAAAAAAAAAAAAAAAAAAAAAAAAAAAAAAAAAAAAAAAAAAAAAAAAAAAAAAAAAAAAAAAAAAAAAAAAAAAAAAAAAAAAAAAAAAAAAAAAAAAAAAAAAAAAAAAAAAAAAAAAAAAAAAAAAAAAAAAAAAAAAAAAAAAAAAAAAAAAAAAAAAAAAAAAAAAAAAAAAAAAAAAAAAAAAAAAAAAAAAAAAAAAAAAAAAAAAAAAAAAAAAAAAAAAAAAAAAAAAAAAAAAAAAAAAAAAAAAAAAAAAAAAAAAAAAAAAAAAAAAAAAAAAAAAAAAAAAAAAAAAAAAAAAAAAAAAAAAAAAAAAAAAAAAAAAAAAAAAAAAAAAAAAAAAAAAAAAAAAAAAAAAAAAAAAAAAAAAAAAAAAAAAAAAAAAAAAAAAAAAAAAAAAAAAAAAAAAAAAAAAAAAAAAAAAAAAAAAAAAAAAAAAAAAAAAAAAAAAAAAAAAAAAAAAAAAAAAAAAAAAAAAAAAAAAAAAAAAAAAAAAAAAAAAAAAAAAAAAAAAAAAAAAAAAAAAAAAAAAAAAAAAAAAAAAAAAAAAAAAAAAAAAAAAAAAAAAAAAAAAAAAAAAAAAAAAAAAAAAAAAAAAAAAAAAAAAAAAAAAAAAAAAAAAAAAAAAAAAAAAAAAAAAAAAAAAAAAAAAAAAAAAAAAAAAAAAAAAAAAAAAAAAAAAAAAAAAAAAAAAAAAAAAAAAAAAAAAAAAAAAAAAAAAAAAAAAAAAAAAAAAAAAAAAAAAAAAAAAAAAAAAAAAAAAAAAAAAAAAAAAAAAAAAAAAAAAAAAAAAAAAAAAAAAAAAAAAAAAAAAAAAAAAAAAAAAAAAAAAAAAAAAAAAAAAAAAAAAAAAAAAAAAAAAAAAAAAAAAAAAAAAAAAAAAAAAAAAAAAAAAAAAAAAAAAAAAAAAAAAAAAAAAAAAAAAAAAAAAAAAAAAAAAAAAAAAAAAAAAAAAAAAAAAAAAAAAAAAAAAAAAAAAAAAAAAAAAAAAAAAAAAAAAAAAAAAAAAAAAAAAAAAAAAAAAAAAAAAAAAAAAAAAAAAAAAAAAAAAAAAAAAAAAAAAAAAAAAAAAAAAAAAAAAAAAAAAAAAAAAAAAAAAAAAAAAAAAAAAAAAAAAAAAAAAAAAAAAAAAAAAAAAAAAAAAAAAAAAAAAAAAAAAAAAAAAAAAAAAAAAAAAAAAAAAAAAAAAAAAAAAAAAAAAAAAAAAAAAAAAAAAAAAAAAAAAAAAAAAAAAAAAAAAAAAAAAAAAAAAAAAAAAAAAAAAAAAAAAAAAAAAAAAAAAAAAAAAAAAAAAAAAAAAAAAAAAAAAAAAAAAAAAAAAAAAAAAAAAAAAAAAAAAAAAAAAAAAAAAAAAAAAAAAAAAAAAAAAAAAAAAAAAAAAAAAAAAAAAAAAAAAAAAAAAAAAAAAAAAAAAAAAAAAAAAAAAAAAAAAAAAAAAAAAAAAAAAAAAAAAAAAAAAAAAAAAAAAAAAAAAAAAAAAAAAAAAAAAAAAAAAAAAAAAAAAAAAAAAAAAAAAAAAAAAAAAAAAAAAAAAAAAAAAAAAAAAAAAAAAAAAAAAAAAAAAAAAAAAAAAAAAAAAAAAAAAAAAAAAAAAAAAAAAAAAAAAAAAAAAAAAAAAAAAAAAAAAAAAAAAAAAAAAAAAAAAAAAAAAAAAAAAAAAAAAAAAAAAAAAAAAAAAAAAAAAAAAAAAAAAAAAAAAAAAAAAAAAAAAAAAAAAAAAAAAAAAAAAAAAAAAAAAAAAAAAAAAAAAAAAAAAAAAAAAAAAAAAAAAAAAAAAAAAAAAAAAAAAAAAAAAAAAAAAAAAAAAAAAAAAAAAAAAAAAAAAAAAAAAAAAAAAAAAAAAAAAAAAAAAAAAAAAAAAAAAAAAAAAAAAAAAAAAAAAAAAAAAAAAAAAAAAAAAAAAAAAAAAAAAAAAAAAAAAAAAAAAAAAAAAAAAAAAAAAAAAAAAAAAAAAAAAAAAAAAAAAAAAAAAAAAAAAAAAAAAAAAAAAAAAAAAAAAAAAAAAAAAAAAAAAAAAAAAAAAAAAAAAAAAAAAAAAAAAAAAAAAAAAAAAAAAAAAAAAAAAAAAAAAAAAAAAAAAAAAAAAAAAAAAAAAAAAAAAAAAAAAAAAAAAAAAAAAAAAAAAAAAAAAAAAAAAAAAAAAAAAAAAAAAAAAAAAAAAAAAAAAAAAAAAAAAAAAAAAAAAAAAAAAAAAAAAAAAAAAAAAAAAAAAAAAAAAAAAAAAAAAAAAAAAAAAAAAAAAAAAAAAAAAAAAAAAAAAAAAAAAAAAAAAAAAAAAAAAAAAAAAAAAAAAAAAAAAAAAAAAAAAAAAAAAAAAAAAAAAAAAAAAAAAAAAAAAAAAAAAAAAAAAAAAAAAAAAAAAAAAAAAAAAAAAAAAAAAAAAAAAAAAAAAAAAAAAAAAAAAAAAAAAAAAAAAAAAAAAAAAAAAAAAAAAAAAAAAAAAAAAAAAAAAAAAAAAAAAAAAAAAAAAAAAAAAAAAAAAAAAAAAAAAAAAAAAAAAAAAAAAAAAAAAAAAAAAAAAAAAAAAAAAAAAAAAAAAAAAAAAAAAAAAAAAAAAAAAAAAAAAAAAAAAAAAAAAAAAAAAAAAAAAAAAAAAAAAAAAAAAAAAAAAAAAAAAAAAAAAAAAAAAAAAAAAAAAAAAAAAAAAAAAAAAAAAAAAAAAAAAAAAAAAAAAAAAAAAAAAAAAAAAAAAAAAAAAAAAAAAAAAAAAAAAAAAAAAAAAAAAAAAAAAAAAAAAAAAAAAAAAAAAAAAAAAAAAAAAAAAAAAAAAAAAAAAAAAAAAAAAAAAAAAAAAAAAAAAAAAAAAAAAAAAAAAAAAAAAAAAAAAAAAAAAAAAAAAAAAAAAAAAAAAAAAAAAAAAAAAAAAAAAAAAAAAAAAAAAAAAAAAAAAAAAAAAAAAAAAAAAAAAAAAAAAAAAAAAAAAAAAAAAAAAAAAAAAAAAAAAAAAAAAAAAAAAAAAAAAAAAAAAAAAAAAAAAAAAAAAAAAAAAAAAAAAAAAAAAAAAAAAAAAAAAAAAAAAAAAAAAAAAAAAAAAAAAAAAAAAAAAAAAAAAAAAAAAAAAAAAAAAAAAAAAAAAAAAAAAAAAAAAAAAAAAAAAAAAAAAAAAAAAAAAAAAAAAAAAAAAAAAAAAAAAAAAAAAAAAAAAAAAAAAAAAAAAAAAAAAAAAAAAAAAAAAAAAAAAAAAAAAAAAAAAAAAAAAAAAAAAAAAAAAAAAAAAAAAAAAAAAAAAAAAAAAAAAAAAAAAAAAAAAAAAAAAAAAAAAAAAAAAAAAAAAAAAAAAAAAAAAAAAAAAAAAAAAAAAAAAAAAAAAAAAAAAAAAAAAAAAAAAAAAAAAAAAAAAAAAAAAAAAAAAAAAAAAAAAAAAAAAAAAAAAAAAAAAAAAAAAAAAAAAAAAAAAAAAAAAAAAAAAAAAAAAAAAAAAAAAAAAAAAAAAAAAAAAAAAAAAAAAAAAAAAAAAAAAAAAAAAAAAAAAAAAAAAAAAAAAAAAAAAAAAAAAAAAAAAAAAAAAAAAAAAAAAAAAAAAAAAAAAAAAAAAAAAAAAAAAAAAAAAAAAAAAAAAAAAAAAAAAAAAAAAAAAAAAAAAAAAAAAAAAAAAAAAAAAAAAAAAAAAAAAAAAAAAAAAAAAAAAAAAAAAAAAAAAAAAAAAAAAAAAAAAAAAAAAAAAAAAAAAAAAAAAAAAAAAAAAAAAAAAAAAAAAAAAAAAAAAAAAAAAAAAAAAAAAAAAAAAAAAAAAAAAAAAAAAAAAAAAAAAAAAAAAAAAAAAAAAAAAAAAAAAAAAAAAAAAAAAAAAAAAAAAAAAAAAAAAAAAAAAAAAAAAAAAAAAAAAAAAAAAAAAAAAAAAAAAAAAAAAAAAAAAAAAAAAAAAAAAAAAAAAAAAAAAAAAAAAAAAAAAAAAAAAAAAAAAAAAAAAAAAAAAAAAAAAAAAAAAAAAAAAAAAAAAAAAAAAAAAAAAAAAAAAAAAAAAAAAAAAAAAAAAAAAAAAAAAAAAAAAAAAAAAAAAAAAAAAAAAAAAAAAAAAAAAAAAAAAAAAAAAAAAAAAAAAAAAAAAAAAAAAAAAAAAAAAAAAAAAAAAAAAAAAAAAAAAAAAAAAAAAAAAAAAAAAAAAAAAAAAAAAAAAAAAAAAAAAAAAAAAAAAAAAAAAAAAAAAAAAAAAAAAAAAAAAAAAAAAAAAAAAAAAAAAAAAAAAAAAAAAAAAAAAAAAAAAAAAAAAAAAAAAAAAAAAAAAAAAAAAAAAAAAAAAAAAAAAAAAAAAAAAAAAAAAAAAAAAAAAAAAAAAAAAAAAAAAAAAAAAAAAAAAAAAAAAAAAAAAAAAAAAAAAAAAAAAAAAAAAAAAAAAAAAAAAAAAAAAAAAAAAAAAAAAAAAAAAAAAAAAAAAAAAAAAAAAAAAAAAAAAAAAAAAAAAAAAAAAAAAAAAAAAAAAAAAAAAAAAAAAAAAAAAAAAAAAAAAAAAAAAAAAAAAAAAAAAAAAAAAAAAAAAAAAAAAAAAAAAAAAAAAAAAAAAAAAAAAAAAAAAAAAAAAAAAAAAAAAAAAAAAAAAAAAAAAAAAAAAAAAAAAAAAAAAAAAAAAAAAAAAAAAAAAAAAAAAAAAAAAAAAAAAAAAAAAAAAAAAAAAAAAAAAAAAAAAAAAAAAAAAAAAAAAAAAAAAAAAAAAAAAAAAAAAAAAAAAAAAAAAAAAAAAAAAAAAAAAAAAAAAAAAAAAAAAAAAAAAAAAAAAAAAAAAAAAAAAAAAAAAAAAAAAAAAAAAAAAAAAAAAAAAAAAAAAAAAAAAAAAAAAAAAAAAAAAAAAAAAAAAAAAAAAAAAAAAAAAAAAAAAAAAAAAAAAAAAAAAAAAAAAAAAAAAAAAAAAAAAAAAAAAAAAAAAAAAAAAAAAAAAAAAAAAAAAAAAAAAAAAAAAAAAAAAAAAAAAAAAAAAAAAAAAAAAAAAAAAAAAAAAAAAAAAAAAAAAAAAAAAAAAAAAAAAAAAAAAAAAAAAAAAAAAAAAAAAAAAAAAAAAAAAAAAAAAAAAAAAAAAAAAAAAAAAAAAAAAAAAAAAAAAAAAAAAAAAAAAAAAAAAAAAAAAAAAAAAAAAAAAAAAAAAAAAAAAAAAAAAAAAAAAAAAAAAAAAAAAAAAAAAAAAAAAAAAAAAAAAAAAAAAAAAAAAAAAAAAAAAAAAAAAAAAAAAAAAAAAAAAAAAAAAAAAAAAAAAAAAAAAAAAAAAAAAAAAAAAAAAAAAAAAAAAAAAAAAAAAAAAAAAAAAAAAAAAAAAAAAAAAAAAAAAAAAAAAAAAAAAAAAAAAAAAAAAAAAAAAAAAAAAAAAAAAAAAAAAAAAAAAAAAAAAAAAAAAAAAAAAAAAAAAAAAAAAAAAAAAAAAAAAAAAAAAAAAAAAAAAAAAAAAAAAAAAAAAAAAAAAAAAAAAAAAAAAAAAAAAAAAAAAAAAAAAAAAAAAAAAAAAAAAAAAAAAAAAAAAAAAAAAAAAAAAAAAAAAAAAAAAAAAAAAAAAAAAAAAAAAAAAAAAAAAAAAAAAAAAAAAAAAAAAAAAAAAAAAAAAAAAAAAAAAAAAAAAAAAAAAAAAAAAAAAAAAAAAAAAAAAAAAAAAAAAAAAAAAAAAAAAAAAAAAAAAAAAAAAAAAAAAAAAAAAAAAAAAAAAAAAAAAAAAAAAAAAAAAAAAAAAAAAAAAAAAAAAAAAAAAAAAAAAAAAAAAAAAAAAAAAAAAAAAAAAAAAAAAAAAAAAAAAAAAAAAAAAAAAAAAAAAAAAAAAAAAAAAAAAAAAAAAAAAAAAAAAAAAAAAAAAAAAAAAAAAAAAAAAAAAAAAAAAAAAAAAAAAAAAAAAAAAAAAAAAAAAAAAAAAAAAAAAAAAAAAAAAAAAAAAAAAAAAAAAAAAAAAAAAAAAAAAAAAAAAAAAAAAAAAAAAAAAAAAAAAAAAAAAAAAAAAAAAAAAAAAAAAAAAAAAAAAAAAAAAAAAAAAAAAAAAAAAAAAAAAAAAAAAAAAAAAAAAAAAAAAAAAAAAAAAAAAAAAAAAAAAAAAAAAAAAAAAAAAAAAAAAAAAAAAAAAAAAAAAAAAAAAAAAAAAAAAAAAAAAAAAAAAAAAAAAAAAAAAAAAAAAAAAAAAAAAAAAAAAAAAAAAAAAAAAAAAAAAAAAAAAAAAAAAAAAAAAAAAAAAAAAAAAAAAAAAAAAAAAAAAAAAAAAAAAAAAAAAAAAAAAAAAAAAAAAAAAAAAAAAAAAAAAAAAAAAAAAAAAAAAAAAAAAAAAAAAAAAAAAAAAAAAAAAAAAAAAAAAAAAAAAAAAAAAAAAAAAAAAAAAAAAAAAAAAAAAAAAAAAAAAAAAAAAAAAAAAAAAAAAAAAAAAAAAAAAAAAAAAAAAAAAAAAAAAAAAAAAAAAAAAAAAAAAAAAAAAAAAAAAAAAAAAAAAAAAAAAAAAAAAAAAAAAAAAAAAAAAAAAAAAAAAAAAAAAAAAAAAAAAAAAAAAAAAAAAAAAAAAAAAAAAAAAAAAAAAAAAAAAAAAAAAAAAAAAAAAAAAAAAAAAAAAAAAAAAAAAAAAAAAAAAAAAAAAAAAAAAAAAAAAAAAAAAAAAAAAAAAAAAAAAAAAAAAAAAAAAAAAAAAAAAAAAAAAAAAAAAAAAAAAAAAAAAAAAAAAAAAAAAAAAAAAAAAAAAAAAAAAAAAAAAAAAAAAAAAAAAAAAAAAAAAAAAAAAAAAAAAAAAAAAAAAAAAAAAAAAAAAAAAAAAAAAAAAAAAAAAAAAAAAAAAAAAAAAAAAAAAAAAAAAAAAAAAAAAAAAAAAAAAAAAAAAAAAAAAAAAAAAAAAAAAAAAAAAAAAAAAAAAAAAAAAAAAAAAAAAAAAAAAAAAAAAAAAAAAAAAAAAAAAAAAAAAAAAAAAAAAAAAAAAAAAAAAAAAAAAAAAAAAAAAAAAAAAAAAAAAAAAAAAAAAAAAAAAAAAAAAAAAAAAAAAAAAAAAAAAAAAAAAAAAAAAAAAAAAAAAAAAAAAAAAAAAAAAAAAAAAAAAAAAAAAAAAAAAAAAAAAAAAAAAAAAAAAAAAAAAAAAAAAAAAAAAAAAAAAAAAAAAAAAAAAAAAAAAAAAAAAAAAAAAAAAAAAAAAAAAAAAAAAAAAAAAAAAAAAAAAAAAAAAAAAAAAAAAAAAAAAAAAAAAAAAAAAAAAAAAAAAAAAAAAAAAAAAAAAAAAAAAAAAAAAAAAAAAAAAAAAAAAAAAAAAAAAAAAAAAAAAAAAAAAAAAAAAAAAAAAAAAAAAAAAAAAAAAAAAAAAAAAAAAAAAAAAAAAAAAAAAAAAAAAAAAAAAAAAAAAAAAAAAAAAAAAAAAAAAAAAAAAAAAAAAAAAAAAAAAAAAAAAAAAAAAAAAAAAAAAAAAAAAAAAAAAAAAAAAAAAAAAAAAAAAAAAAAAAAAAAAAAAAAAAAAAAAAAAAAAAAAAAAAAAAAAAAAAAAAAAAAAAAAAAAAAAAAAAAAAAAAAAAAAAAAAAAAAAAAAAAAAAAAAAAAAAAAAAAAAAAAAAAAAAAAAAAAAAAAAAAAAAAAAAAAAAAAAAAAAAAAAAAAAAAAAAAAAAAAAAAAAAAAAAAAAAAAAAAAAAAAAAAAAAAAAAAAAAAAAAAAAAAAAAAAAAAAAAAAAAAAAAAAAAAAAAAAAAAAAAAAAAAAAAAAAAAAAAAAAAAAAAAAAAAAAAAAAAAAAAAAAAAAAAAAAAAAAAAAAAAAAAAAAAAAAAAAAAAAAAAAAAAAAAAAAAAAAAAAAAAAAAAAAAAAAAAAAAAAAAAAAAAAAAAAAAAAAAAAAAAAAAAAAAAAAAAAAAAAAAAAAAAAAAAAAAAAAAAAAAAAAAAAAAAAAAAAAAAAAAAAAAAAAAAAAAAAAAAAAAAAAAAAAAAAAAAAAAAAAAAAAAAAAAAAAAAAAAAAAAAAAAAAAAAAAAAAAAAAAAAAAAAAAAAAAAAAAAAAAAAAAAAAAAAAAAAAAAAAAAAAAAAAAAAAAAAAAAAAAAAAAAAAAAAAAAAAAAAAAAAAAAAAAAAAAAAAAAAAAAAAAAAAAAAAAAAAAAAAAAAAAAAAAAAAAAAAAAAAAAAAAAAAAAAAAAAAAAAAAAAAAAAAAAAAAAAAAAAAAAAAAAAAAAAAAAAAAAAAAAAAAAAAAAAAAAAAAAAAAAAAAAAAAAAAAAAAAAAAAAAAAAAAAAAAAAAAAAAAAAAAAAAAAAAAAAAAAAAAAAAAAAAAAAAAAAAAAAAAAAAAAAAAAAAAAAAAAAAAAAAAAAAAAAAAAAAAAAAAAAAAAAAAAAAAAAAAAAAAAAAAAAAAAAAAAAAAAAAAAAAAAAAAAAAAAAAAAAAAAAAAAAAAAAAAAAAAAAAAAAAAAAAAAAAAAAAAAAAAAAAAAAAAAAAAAAAAAAAAAAAAAAAAAAAAAAAAAAAAAAAAAAAAAAAAAAAAAAAAAAAAAAAAAAAAAAAAAAAAAAAAAAAAAAAAAAAAAAAAAAAAAAAAAAAAAAAAAAAAAAAAAAAAAAAAAAAAAAAAAAAAAAAAAAAAAAAAAAAAAAAAAAAAAAAAAAAAAAAAAAAAAAAAAAAAAAAAAAAAAAAAAAAAAAAAAAAAAAAAAAAAAAAAAAAAAAAAAAAAAAAAAAAAAAAAAAAAAAAAAAAAAAAAAAAAAAAAAAAAAAAAAAAAAAAAAAAAAAAAAAAAAAAAAAAAAAAAAAAAAAAAAAAAAAAAAAAAAAAAAAAAAAAAAAAAAAAAAAAAAAAAAAAAAAAAAAAAAAAAAAAAAAAAAAAAAAAAAAAAAAAAAAAAAAAAAAAAAAAAAAAAAAAAAAAAAAAAAAAAAAAAAAAAAAAAAAAAAAAAAAAAAAAAAAAAAAAAAAAAAAAAAAAAAAAAAAAAAAAAAAAAAAAAAAAAAAAAAAAAAAAAAAAAAAAAAAAAAAAAAAAAAAAAAAAAAAAAAAAAAAAAAAAAAAAAAAAAAAAAAAAAAAAAAAAAAAAAAAAAAAAAAAAAAAAAAAAAAAAAAAAAAAAAAAAAAAAAAAAAAAAAAAAAAAAAAAAAAAAAAAAAAAAAAAAAAAAAAAAAAAAAAAAAAAAAAAAAAAAAAAAAAAAAAAAAAAAAAAAAAAAAAAAAAAAAAAAAAAAAAAAAAAAAAAAAAAAAAAAAAAAAAAAAAAAAAAAAAAAAAAAAAAAAAAAAAAAAAAAAAAAAAAAAAAAAAAAAAAAAAAAAAAAAAAAAAAAAAAAAAAAAAAAAAAAAAAAAAAAAAAAAAAAAAAAAAAAAAAAAAAAAAAAAAAAAAAAAAAAAAAAAAAAAAAAAAAAAAAAAAAAAAAAAAAAAAAAAAAAAAAAAAAAAAAAAAAAAAAAAAAAAAAAAAAAAAAAAAAAAAAAAAAAAAAAAAAAAAAAAAAAAAAAAAAAAAAAAAAAAAAAAAAAAAAAAAAAAAAAAAAAAAAAAAAAAAAAAAAAAAAAAAAAAAAAAAAAAAAAAAAAAAAAAAAAAAAAAAAAAAAAAAAAAAAAAAAAAAAAAAAAAAAAAAAAAAAAAAAAAAAAAAAAAAAAAAAAAAAAAAAAAAAAAAAAAAAAAAAAAAAAAAAAAAAAAAAAAAAAAAAAAAAAAAAAAAAAAAAAAAAAAAAAAAAAAAAAAAAAAAAAAAAAAAAAAAAAAAAAAAAAAAAAAAAAAAAAAAAAAAAAAAAAAAAAAAAAAAAAAAAAAAAAAAAAAAAAAAAAAAAAAAAAAAAAAAAAAAAAAAAAAAAAAAAAAAAAAAAAAAAAAAAAAAAAAAAAAAAAAAAAAAAAAAAAAAAAAAAAAAAAAAAAAAAAAAAAAAAAAAAAAAAAAAAAAAAAAAAAAAAAAAAAAAAAAAAAAAAAAAAAAAAAAAAAAAAAAAAAAAAAAAAAAAAAAAAAAAAAAAAAAAAAAAAAAAAAAAAAAAAAAAAAAAAAAAAAAAAAAAAAAAAAAAAAAAAAAAAAAAAAAAAAAAAAAAAAAAAAAAAAAAAAAAAAAAAAAAAAAAAAAAAAAAAAAAAAAAAAAAAAAAAAAAAAAAAAAAAAAAAAAAAAAAAAAAAAAAAAAAAAAAAAAAAAAAAAAAAAAAAAAAAAAAAAAAAAAAAAAAAAAAAAAAAAAAAAAAAAAAAAAAAAAAAAAAAAAAAAAAAAAAAAAAAAAAAAAAAAAAAAAAAAAAAAAAAAAAAAAAAAAAAAAAAAAAAAAAAAAAAAAAAAAAAAAAAAAAAAAAAAAAAAAAAAAAAAAAAAAAAAAAAAAAAAAAAAAAAAAAAAAAAAAAAAAAAAAAAAAAAAAAAAAAAAAAAAAAAAAAAAAAAAAAAAAAAAAAAAAAAAAAAAAAAAAAAAAAAAAAAAAAAAAAAAAAAAAAAAAAAAAAAAAAAAAAAAAAAAAAAAAAAAAAAAAAAAAAAAAAAAAAAAAAAAAAAAAAAAAAAAAAAAAAAAAAAAAAAAAAAAAAAAAAAAAAAAAAAAAAAAAAAAAAAAAAAAAAAAAAAAAAAAAAAAAAAAAAAAAAAAAAAAAAAAAAAAAAAAAAAAAAAAAAAAAAAAAAAAAAAAAAAAAAAAAAAAAAAAAAAAAAAAAAAAAAAAAAAAAAAAAAAAAAAAAAAAAAAAAAAAAAAAAAAAAAAAAAAAAAAAAAAAAAAAAAAAAAAAAAAAAAAAAAAAAAAAAAAAAAAAAAAAAAAAAAAAAAAAAAAAAAAAAAAAAAAAAAAAAAAAAAAAAAAAAAAAAAAAAAAAAAAAAAAAAAAAAAAAAAAAAAAAAAAAAAAAAAAAAAAAAAAAAAAAAAAAAAAAAAAAAAAAAAAAAAAAAAAAAAAAAAAAAAAAAAAAAAAAAAAAAAAAAAAAAAAAAAAAAAAAAAAAAAAAAAAAAAAAAAAAAAAAAAAAAAAAAAAAAAAAAAAAAAAAAAAAAAAAAAAAAAAAAAAAAAAAAAAAAAAAAAAAAAAAAAAAAAAAAAAAAAAAAAAAAAAAAAAAAAAAAAAAAAAAAAAAAAAAAAAAAAAAAAAAAAAAAAAAAAAAAAAAAAAAAAAAAAAAAAAAAAAAAAAAAAAAAAAAAAAAAAAAAAAAAAAAAAAAAAAAAAAAAAAAAAAAAAAAAAAAAAAAAAAAAAAAAAAAAAAAAAAAAAAAAAAAAAAAAAAAAAAAAAAAAAAAAAAAAAAAAAAAAAAAAAAAAAAAAAAAAAAAAAAAAAAAAAAAAAAAAAAAAAAAAAAAAAAAAAAAAAAAAAAAAAAAAAAAAAAAAAAAAAAAAAAAAAAAAAAAAAAAAAAAAAAAAAAAAAAAAAAAAAAAAAAAAAAAAAAAAAAAAAAAAAAAAAAAAAAAAAAAAAAAAAAAAAAAAAAAAAAAAAAAAAAAAAAAAAAAAAAAAAAAAAAAAAAAAAAAAAAAAAAAAAAAAAAAAAAAAAAAAAAAAAAAAAAAAAAAAAAAAAAAAAAAAAAAAAAAAAAAAAAAAAAAAAAAAAAAAAAAAAAAAAAAAAAAAAAAAAAAAAAAAAAAAAAAAAAAAAAAAAAAAAAAAAAAAAAAAAAAAAAAAAAAAAAAAAAAAAAAAAAAAAAAAAAAAAAAAAAAAAAAAAAAAAAAAAAAAAAAAAAAAAAAAAAAAAAAAAAAAAAAAAAAAAAAAAAAAAAAAAAAAAAAAAAAAAAAAAAAAAAAAAAAAAAAAAAAAAAAAAAAAAAAAAAAAAAAAAAAAAAAAAAAAAAAAAAAAAAAAAAAAAAAAAAAAAAAAAAAAAAAAAAAAAAAAAAAAAAAAAAAAAAAAAAAAAAAAAAAAAAAAAAAAAAAAAAAAAAAAAAAAAAAAAAAAAAAAAAAAAAAAAAAAAAAAAAAAAAAAAAAAAAAAAAAAAAAAAAAAAAAAAAAAAAAAAAAAAAAAAAAAAAAAAAAAAAAAAAAAAAAAAAAAAAAAAAAAAAAAAAAAAAAAAAAAAAAAAAAAAAAAAAAAAAAAAAAAAAAAAAAAAAAAAAAAAAAAAAAAAAAAAAAAAAAAAAAAAAAAAAAAAAAAAAAAAAAAAAAAAAAAAAAAAAAAAAAAAAAAAAAAAAAAAAAAAAAAAAAAAAAAAAAAAAAAAAAAAAAAAAAAAAAAAAAAAAAAAAAAAAAAAAAAAAAAAAAAAAAAAAAAAAAAAAAAAAAAAAAAAAAAAAAAAAAAAAAAAAAAAAAAAAAAAAAAAAAAAAAAAAAAAAAAAAAAAAAAAAAAAAAAAAAAAAAAAAAAAAAAAAAAAAAAAAAAAAAAAAAAAAAAAAAAAAAAAAAAAAAAAAAAAAAAAAAAAAAAAAAAAAAAAAAAAAAAAAAAAAAAAAAAAAAAAAAAAAAAAAAAAAAAAAAAAAAAAAAAAAAAAAAAAAAAAAAAAAAAAAAAAAAAAAAAAAAAAAAAAAAAAAAAAAAAAAAAAAAAAAAAAAAAAAAAAAAAAAAAAAAAAAAAAAAAAAAAAAAAAAAAAAAAAAAAAAAAAAAAAAAAAAAAAAAAAAAAAAAAAAAAAAAAAAAAAAAAAAAAAAAAAAAAAAAAAAAAAAAAAAAAAAAAAAAAAAAAAAAAAAAAAAAAAAAAAAAAAAAAAAAAAAAAAAAAAAAAAAAAAAAAAAAAAAAAAAAAAAAAAAAAAAAAAAAAAAAAAAAAAAAAAAAAAAAAAAAAAAAAAAAAAAAAAAAAAAAAAAAAAAAAAAAAAAAAAAAAAAAAAAAAAAAAAAAAAAAAAAAAAAAAAAAAAAAAAAAAAAAAAAAAAAAAAAAAAAAAAAAAAAAAAAAAAAAAAAAAAAAAAAAAAAAAAAAAAAAAAAAAAAAAAAAAAAAAAAAAAAAAAAAAAAAAAAAAAAAAAAAAAAAAAAAAAAAAAAAAAAAAAAAAAAAAAAAAAAAAAAAAAAAAAAAAAAAAAAAAAAAAAAAAAAAAAAAAAAAAAAAAAAAAAAAAAAAAAAAAAAAAAAAAAAAAAAAAAAAAAAAAAAAAAAAAAAAAAAAAAAAAAAAAAAAAAAAAAAAAAAAAAAAAAAAAAAAAAAAAAAAAAAAAAAAAAAAAAAAAAAAAAAAAAAAAAAAAAAAAAAAAAAAAAAAAAAAAAAAAAAAAAAAAAAAAAAAAAAAAAAAAAAAAAAAAAAAAAAAAAAAAAAAAAAAAAAAAAAAAAAAAAAAAAAAAAAAAAAAAAAAAAAAAAAAAAAAAAAAAAAAAAAAAAAAAAAAAAAAAAAAAAAAAAAAAAAAAAAAAAAAAAAAAAAAAAAAAAAAAAAAAAAAAAAAAAAAAAAAAAAAAAAAAAAAAAAAAAAAAAAAAAAAAAAAAAAAAAAAAAAAAAAAAAAAAAAAAAAAAAAAAAAAAAAAAAAAAAAAAAAAAAAAAAAAAAAAAAAAAAAAAAAAAAAAAAAAAAAAAAAAAAAAAAAAAAAAAAAAAAAAAAAAAAAAAAAAAAAAAAAAAAAAAAAAAAAAAAAAAAAAAAAAAAAAAAAAAAAAAAAAAAAAAAAAAAAAAAAAAAAAAAAAAAAAAAAAAAAAAAAAAAAAAAAAAAAAAAAAAAAAAAAAAAAAAAAAAAAAAAAAAAAAAAAAAAAAAAAAAAAAAAAAAAAAAAAAAAAAAAAAAAAAAAAAAAAAAAAAAAAAAAAAAAAAAAAAAAAAAAAAAAAAAAAAAAAAAAAAAAAAAAAAAAAAAAAAAAAAAAAAAAAAAAAAAAAAAAAAAAAAAAAAAAAAAAAAAAAAAAAAAAAAAAAAAAAAAAAAAAAAAAAAAAAAAAAAAAAAAAAAAAAAAAAAAAAAAAAAAAAAAAAAAAAAAAAAAAAAAAAAAAAAAAAAAAAAAAAAAAAAAAAAAAAAAAAAAAAAAAAAAAAAAAAAAAAAAAAAAAAAAAAAAAAAAAAAAAAAAAAAAAAAAAAAAAAAAAAAAAAAAAAAAAAAAAAAAAAAAAAAAAAAAAAAAAAAAAAAAAAAAAAAAAAAAAAAAAAAAAAAAAAAAAAAAAAAAAAAAAAAAAAAAAAAAAAAAAAAAAAAAAAAAAAAAAAAAAAAAD2WQIAzbHZZETONmwvOEnhE2MYiOc5MNfppKioBiMqKFcNxwMfSiazebcTtdNWCRyTCfnhCp5FnQUDFIoOJjvIwk5bAeukeUBE4gcrmaJAuCSni1XzRSHXwY6rleNxg96qBIMREe+oM684ILgRuakEH7hHKwgKPLkmUpensvK0AzlTO95FF/UrEvP1pnM7I5VWqYv3YF//5uwbWm8G/tWYceHez+MuIDtITfwfZ/cLX+cUsH3FVFIrX8fpvRkSDSXecMKsofj7lTx+YI9rEa1GTy8fyP8GWYvJX8PAqkQEPw3AjLZOzeFURyhrUv5Rjf8mYwU/MybPpsOe1D8J/R4vGS7/r6Ykog2Mv/1dqgw8chBFSrDpKcLT9oZMdlruRiZU5Mvj6XAZR+WOWdyC59WjEcX7ZjBpFQBHT5L/qxfJ4EvGPRsbLU7bURFP6oz1zg6Yv4oTM7ZA05l3z8H0LzkzRpYL948QmS/leJ9g41pIdSQXsJpFCyNbIpckHO2v9BXnhsAzXGVecSHFbHlZacpoblbH6pgZ/IiwrIhfJ8LCzZEvhdmeM03IOYP8iBZHC3M8Lr7rdPUvF314PBBQc6odaVud6euO6AnR3dqSDV9LdnNJYwRGdgdHSY7pt3Bb43328/9SvuY3aw7CFx47WUCHDlF/SQbBwHQZeORZ6vLnpC6mnmw=</c2pa:manifest><ContainsAiGeneratedContent>Yes</ContainsAiGeneratedContent></metadata><defs><g/><clipPath id="d4cf22d1bd"><path d="M 129.160156 596.308594 L 456.910156 596.308594 L 456.910156 903.808594 L 129.160156 903.808594 Z M 129.160156 596.308594 " clip-rule="nonzero"/></clipPath><clipPath id="a7c59009ef"><rect x="0" width="888" y="0" height="275"/></clipPath></defs><g clip-path="url(#d4cf22d1bd)"><g class="brand-color" transform="matrix(0.469482, 0, 0, 0.469482, 52.004933, 510.994856)"><g transform="translate(0,1024) scale(0.1,-0.1)"><path d="M1913 8231 c-79 -37 -115 -128 -152 -390 -34 -237 -44 -427 -38 -706
9 -370 34 -597 103 -929 78 -373 179 -679 327 -989 155 -324 376 -656 585
-880 l68 -72 17 -140 c37 -304 137 -576 287 -788 70 -97 242 -269 341 -339 35
-25 141 -95 235 -155 208 -134 358 -246 619 -464 242 -201 334 -268 440 -319
219 -106 455 -117 676 -34 131 49 253 135 499 350 270 236 362 304 766 564
339 219 529 454 644 799 40 117 82 324 95 460 l7 74 76 81 c391 418 701 1000
853 1601 156 616 198 1271 119 1838 -34 242 -68 354 -122 404 -57 53 -156 67
-259 37 -228 -68 -741 -413 -1169 -787 -277 -242 -702 -687 -1097 -1147 l-159
-185 -79 1 c-44 1 -204 5 -355 9 -253 7 -490 -1 -621 -21 l-36 -6 -163 188
c-547 631 -879 966 -1300 1315 -291 241 -719 522 -929 610 -99 42 -214 50
-278 20z m322 -465 c266 -146 711 -557 1012 -933 295 -370 527 -782 597 -1064
28 -114 27 -117 -75 -227 -97 -103 -191 -223 -235 -299 -62 -105 -97 -263 -59
-263 8 0 77 62 152 138 326 327 688 510 1143 579 139 21 508 24 645 5 256 -35
438 -88 642 -187 221 -106 434 -264 622 -459 40 -42 79 -76 87 -76 19 0 18 52
-2 121 -36 123 -129 262 -297 444 -53 58 -97 111 -97 119 0 30 50 207 85 301
130 351 476 850 857 1235 231 234 490 447 663 545 88 50 109 54 124 26 38 -71
62 -468 42 -706 -49 -587 -224 -1223 -471 -1710 -137 -271 -280 -476 -486
-694 l-88 -94 -1 -266 c-1 -284 -10 -362 -62 -540 -83 -288 -249 -476 -613
-696 -222 -134 -339 -222 -622 -469 -199 -174 -336 -250 -522 -291 -111 -25
-278 -16 -401 20 -171 50 -242 98 -592 398 -135 116 -311 241 -543 385 -365
226 -509 433 -581 832 -19 105 -23 165 -24 378 l-2 252 -74 78 c-372 388 -648
924 -823 1592 -104 399 -150 730 -150 1075 0 267 21 431 60 470 20 20 18 20
89 -19z M3977 4431 c-127 -42 -217 -130 -239 -234 -9 -43 -8 -66 5 -125 27
-119 71 -196 167 -292 135 -136 256 -184 465 -185 140 0 213 19 272 70 l38 33
-1 88 c-3 179 -112 424 -243 546 -95 89 -149 110 -291 115 -93 2 -126 -1 -173
-16z m281 -236 c38 -41 43 -92 13 -119 -44 -40 -141 33 -141 105 0 66 72 74
128 14z M5950 4430 c-193 -72 -377 -363 -396 -630 -5 -64 -2 -80 15 -107 63
-99 306 -132 507 -69 90 29 207 100 265 162 120 127 184 316 149 439 -20 70
-92 144 -182 185 -67 31 -82 34 -188 37 -96 3 -124 0 -170 -17z m142 -207 c31
-28 23 -77 -19 -118 -42 -41 -72 -51 -102 -36 -47 26 -28 115 33 152 38 23 64
24 88 2z M5008 3270 c-179 -30 -268 -122 -237 -245 9 -36 29 -64 87 -126 93
-99 229 -209 258 -209 45 0 283 206 329 284 44 77 40 151 -13 209 -65 73 -266
113 -424 87z"/></g></g></g><g transform="matrix(1, 0, 0, 1, 456, 631)"><g clip-path="url(#a7c59009ef)"><g class="brand-color" fill-opacity="1"><g transform="translate(0.838236, 218.114275)"><g><path d="M 137.046875 -14.40625 L 137.046875 0 L 25.65625 0 L 25.65625 -157.53125 L 133.671875 -157.53125 L 133.671875 -143.125 L 42.3125 -143.125 L 42.3125 -87.09375 L 123.78125 -87.09375 L 123.78125 -72.921875 L 42.3125 -72.921875 L 42.3125 -14.40625 Z M 137.046875 -14.40625 "/></g></g></g><g class="brand-color" fill-opacity="1"><g transform="translate(148.018492, 218.114275)"><g><path d="M 84.625 -7.203125 C 81.613281 -4.503906 77.894531 -2.441406 73.46875 -1.015625 C 69.050781 0.410156 64.441406 1.125 59.640625 1.125 C 48.535156 1.125 39.984375 -1.875 33.984375 -7.875 C 27.984375 -13.875 24.984375 -22.351562 24.984375 -33.3125 L 24.984375 -104.875 L 3.828125 -104.875 L 3.828125 -118.375 L 24.984375 -118.375 L 24.984375 -144.25 L 40.953125 -144.25 L 40.953125 -118.375 L 76.96875 -118.375 L 76.96875 -104.875 L 40.953125 -104.875 L 40.953125 -34.203125 C 40.953125 -27.148438 42.710938 -21.785156 46.234375 -18.109375 C 49.765625 -14.441406 54.832031 -12.609375 61.4375 -12.609375 C 64.738281 -12.609375 67.925781 -13.128906 71 -14.171875 C 74.070312 -15.222656 76.734375 -16.722656 78.984375 -18.671875 Z M 84.625 -7.203125 "/></g></g></g><g class="brand-color" fill-opacity="1"><g transform="translate(239.387296, 218.114275)"><g><path d="M 63.6875 -119.28125 C 79.144531 -119.28125 91 -115.414062 99.25 -107.6875 C 107.5 -99.957031 111.625 -88.515625 111.625 -73.359375 L 111.625 0 L 96.3125 0 L 96.3125 -18.453125 C 92.71875 -12.304688 87.429688 -7.503906 80.453125 -4.046875 C 73.472656 -0.597656 65.1875 1.125 55.59375 1.125 C 42.382812 1.125 31.878906 -2.023438 24.078125 -8.328125 C 16.273438 -14.628906 12.375 -22.957031 12.375 -33.3125 C 12.375 -43.363281 16.007812 -51.460938 23.28125 -57.609375 C 30.5625 -63.765625 42.15625 -66.84375 58.0625 -66.84375 L 95.640625 -66.84375 L 95.640625 -74.046875 C 95.640625 -84.242188 92.789062 -92.003906 87.09375 -97.328125 C 81.394531 -102.660156 73.066406 -105.328125 62.109375 -105.328125 C 54.609375 -105.328125 47.40625 -104.085938 40.5 -101.609375 C 33.601562 -99.128906 27.679688 -95.71875 22.734375 -91.375 L 15.53125 -103.296875 C 21.53125 -108.398438 28.726562 -112.335938 37.125 -115.109375 C 45.53125 -117.890625 54.382812 -119.28125 63.6875 -119.28125 Z M 58.0625 -11.484375 C 67.0625 -11.484375 74.785156 -13.546875 81.234375 -17.671875 C 87.691406 -21.796875 92.492188 -27.757812 95.640625 -35.5625 L 95.640625 -54.90625 L 58.515625 -54.90625 C 38.253906 -54.90625 28.125 -47.851562 28.125 -33.75 C 28.125 -26.851562 30.75 -21.414062 36 -17.4375 C 41.257812 -13.46875 48.613281 -11.484375 58.0625 -11.484375 Z M 58.0625 -11.484375 "/></g></g></g><g class="brand-color" fill-opacity="1"><g transform="translate(372.164558, 218.114275)"><g><path d="M 83.265625 -119.28125 C 94.367188 -119.28125 104.421875 -116.765625 113.421875 -111.734375 C 122.421875 -106.710938 129.472656 -99.625 134.578125 -90.46875 C 139.679688 -81.3125 142.234375 -70.882812 142.234375 -59.1875 C 142.234375 -47.332031 139.679688 -36.828125 134.578125 -27.671875 C 129.472656 -18.523438 122.457031 -11.4375 113.53125 -6.40625 C 104.601562 -1.382812 94.515625 1.125 83.265625 1.125 C 73.660156 1.125 64.992188 -0.859375 57.265625 -4.828125 C 49.546875 -8.804688 43.210938 -14.625 38.265625 -22.28125 L 38.265625 43.65625 L 22.28125 43.65625 L 22.28125 -118.375 L 37.578125 -118.375 L 37.578125 -94.96875 C 42.378906 -102.769531 48.71875 -108.769531 56.59375 -112.96875 C 64.476562 -117.175781 73.367188 -119.28125 83.265625 -119.28125 Z M 82.140625 -13.046875 C 90.390625 -13.046875 97.890625 -14.957031 104.640625 -18.78125 C 111.398438 -22.613281 116.691406 -28.054688 120.515625 -35.109375 C 124.335938 -42.160156 126.25 -50.1875 126.25 -59.1875 C 126.25 -68.1875 124.335938 -76.175781 120.515625 -83.15625 C 116.691406 -90.132812 111.398438 -95.570312 104.640625 -99.46875 C 97.890625 -103.375 90.390625 -105.328125 82.140625 -105.328125 C 73.742188 -105.328125 66.207031 -103.375 59.53125 -99.46875 C 52.851562 -95.570312 47.597656 -90.132812 43.765625 -83.15625 C 39.941406 -76.175781 38.03125 -68.1875 38.03125 -59.1875 C 38.03125 -50.1875 39.941406 -42.160156 43.765625 -35.109375 C 47.597656 -28.054688 52.851562 -22.613281 59.53125 -18.78125 C 66.207031 -14.957031 73.742188 -13.046875 82.140625 -13.046875 Z M 82.140625 -13.046875 "/></g></g></g><g class="brand-color" fill-opacity="1"><g transform="translate(524.745881, 218.114275)"><g><path d="M 54.015625 1.125 C 44.410156 1.125 35.21875 -0.257812 26.4375 -3.03125 C 17.664062 -5.8125 10.800781 -9.300781 5.84375 -13.5 L 13.046875 -26.109375 C 18.003906 -22.203125 24.234375 -19.007812 31.734375 -16.53125 C 39.234375 -14.0625 47.035156 -12.828125 55.140625 -12.828125 C 65.941406 -12.828125 73.929688 -14.515625 79.109375 -17.890625 C 84.285156 -21.265625 86.875 -26.03125 86.875 -32.1875 C 86.875 -36.53125 85.445312 -39.941406 82.59375 -42.421875 C 79.738281 -44.898438 76.132812 -46.773438 71.78125 -48.046875 C 67.4375 -49.316406 61.664062 -50.554688 54.46875 -51.765625 C 44.863281 -53.566406 37.132812 -55.40625 31.28125 -57.28125 C 25.425781 -59.15625 20.4375 -62.34375 16.3125 -66.84375 C 12.1875 -71.34375 10.125 -77.566406 10.125 -85.515625 C 10.125 -95.421875 14.25 -103.523438 22.5 -109.828125 C 30.75 -116.128906 42.226562 -119.28125 56.9375 -119.28125 C 64.59375 -119.28125 72.242188 -118.265625 79.890625 -116.234375 C 87.546875 -114.210938 93.847656 -111.550781 98.796875 -108.25 L 91.8125 -95.421875 C 82.0625 -102.171875 70.4375 -105.546875 56.9375 -105.546875 C 46.738281 -105.546875 39.050781 -103.742188 33.875 -100.140625 C 28.695312 -96.546875 26.109375 -91.820312 26.109375 -85.96875 C 26.109375 -81.46875 27.566406 -77.863281 30.484375 -75.15625 C 33.410156 -72.457031 37.050781 -70.46875 41.40625 -69.1875 C 45.757812 -67.914062 51.757812 -66.609375 59.40625 -65.265625 C 68.863281 -63.460938 76.441406 -61.660156 82.140625 -59.859375 C 87.835938 -58.054688 92.710938 -54.976562 96.765625 -50.625 C 100.816406 -46.28125 102.84375 -40.28125 102.84375 -32.625 C 102.84375 -22.28125 98.53125 -14.066406 89.90625 -7.984375 C 81.28125 -1.910156 69.316406 1.125 54.015625 1.125 Z M 54.015625 1.125 "/></g></g></g><g class="brand-color" fill-opacity="1"><g transform="translate(634.793477, 218.114275)"><g><path d="M 66.15625 -59.40625 L 38.265625 -33.75 L 38.265625 0 L 22.28125 0 L 22.28125 -166.984375 L 38.265625 -166.984375 L 38.265625 -53.78125 L 108.921875 -118.375 L 128.734375 -118.375 L 78.09375 -69.984375 L 133.453125 0 L 113.875 0 Z M 66.15625 -59.40625 "/></g></g></g><g class="brand-color" fill-opacity="1"><g transform="translate(763.969946, 218.114275)"><g><path d="M 121.75 -118.375 L 62.5625 14.171875 C 57.757812 25.273438 52.207031 33.148438 45.90625 37.796875 C 39.601562 42.453125 32.03125 44.78125 23.1875 44.78125 C 17.476562 44.78125 12.148438 43.878906 7.203125 42.078125 C 2.253906 40.285156 -2.019531 37.585938 -5.625 33.984375 L 1.796875 22.046875 C 7.796875 28.054688 15 31.0625 23.40625 31.0625 C 28.800781 31.0625 33.410156 29.554688 37.234375 26.546875 C 41.066406 23.546875 44.632812 18.445312 47.9375 11.25 L 53.109375 -0.21875 L 0.21875 -118.375 L 16.875 -118.375 L 61.4375 -17.78125 L 106 -118.375 Z M 121.75 -118.375 "/></g></g></g></g></g></svg>