<svg xmlns="http://www.w3.org/2000/svg" xmlns:xlink="http://www.w3.org/1999/xlink" width="2000" zoomAndPan="magnify" viewBox="0 0 1500 1499.999933" height="2000" preserveAspectRatio="xMidYMid meet" version="1.0"><style>.brand-color{fill:#152240;}</style><metadata><c2pa:manifest xmlns:c2pa="http://c2pa.org/manifest">AABCHWp1bWIAAAAeanVtZGMycGEAEQAQgAAAqgA4m3EDYzJwYQAAAEH3anVtYgAAAEdqdW1kYzJtYQARABCAAACqADibcQN1cm46YzJwYTplYjFkYzA4Yy05ZWJhLTQ2NzEtYWQxNC0wZmE2NTQxMzRjMTAAAAAB5Gp1bWIAAAApanVtZGMyYXMAEQAQgAAAqgA4m3EDYzJwYS5hc3NlcnRpb25zAAAAAO5qdW1iAAAAQWp1bWRjYm9yABEAEIAAAKoAOJtxE2MycGEuYWN0aW9ucy52MgAAAAAYYzJzaNpQgo2aAPfUvkdDtoJ680YAAAClY2JvcqFnYWN0aW9uc4GjZmFjdGlvbmxjMnBhLmNyZWF0ZWRtc29mdHdhcmVBZ2VudGhDYW52YSBBSXFkaWdpdGFsU291cmNlVHlwZXhTaHR0cDovL2N2LmlwdGMub3JnL25ld3Njb2Rlcy9kaWdpdGFsc291cmNldHlwZS9jb21wb3NpdGVXaXRoVHJhaW5lZEFsZ29yaXRobWljTWVkaWEAAADFanVtYgAAAEBqdW1kY2JvcgARABCAAACqADibcRNjMnBhLmhhc2guZGF0YQAAAAAYYzJzaN0t9uULlLbLhiHskdNnVbcAAAB9Y2JvcqVqZXhjbHVzaW9uc4GiZXN0YXJ0GQETZmxlbmd0aBlYKGRuYW1lbmp1bWJmIG1hbmlmZXN0Y2FsZ2ZzaGEyNTZkaGFzaFgg2sYMItbfXXIFFMTcw1rIUP0EK6Ult6VMb+vJjJxpCGNjcGFkSQAAAAAAAAAAAAAAAgtqdW1iAAAAJ2p1bWRjMmNsABEAEIAAAKoAOJtxA2MycGEuY2xhaW0udjIAAAAB3GNib3Knamluc3RhbmNlSUR4LHhtcDppaWQ6OTMxZmMyMTAtMDQ1Ni00Y2RhLWI2NzEtNjFiYWYwNDJlM2M1dGNsYWltX2dlbmVyYXRvcl9pbmZvo2RuYW1lZ2MycGEtcnNndmVyc2lvbmUwLjAuMHdvcmcuY29udGVudGF1dGguYzJwYV9yc2UwLjAuMGlzaWduYXR1cmV4TXNlbGYjanVtYmY9L2MycGEvdXJuOmMycGE6ZWIxZGMwOGMtOWViYS00NjcxLWFkMTQtMGZhNjU0MTM0YzEwL2MycGEuc2lnbmF0dXJlcmNyZWF0ZWRfYXNzZXJ0aW9uc4GiY3VybHgpc2VsZiNqdW1iZj1jMnBhLmFzc2VydGlvbnMvYzJwYS5oYXNoLmRhdGFkaGFzaFggnDHX7gBzUHZMOzGJ8KV32VvreqKOrCPBGlmf5Pr1lhtzZ2F0aGVyZWRfYXNzZXJ0aW9uc4GiY3VybHgqc2VsZiNqdW1iZj1jMnBhLmFzc2VydGlvbnMvYzJwYS5hY3Rpb25zLnYyZGhhc2hYIGVpoVezHnJ/D2QYsIXgDZ0qd7nzqdo1Bu3ZeYkqKndNaGRjOnRpdGxlZTQuc3ZnY2FsZ2ZzaGEyNTYAAD25anVtYgAAAChqdW1kYzJjcwARABCAAACqADibcQNjMnBhLnNpZ25hdHVyZQAAAD2JY2JvctKEWRKBogE4Jhghg1kFPzCCBTswggMjoAMCAQICEQCF9oZ39PVW0NOtXnFrG0h+MA0GCSqGSIb3DQEBDQUAMCIxIDAeBgNVBAMTF1NpZ25pbmcgSW50ZXJtZWRpYXRlIENBMB4XDTI2MDMyMTIzNTEwNloXDTI2MDMyOTIzNTEwNlowODEOMAwGA1UEChMFQ2FudmExDjAMBgNVBAsTBUNhbnZhMRYwFAYDVQQDEw1DYW52YSBTaWduaW5nMIICIjANBgkqhkiG9w0BAQEFAAOCAg8AMIICCgKCAgEA4rUPA2N4kKAcY0U0ygStgRPVARuCWw3P3VQO7/VdAANhgv+WEI7jYGEdtPW7dAVus6k/pILv0mxOiXU/+g7OOAg6RtKNqV77xKAIOD0UuKn7aDxYNAqytjhAJN48Vd8WuR6rq8feArErNYAXpZXAHtfxLp8O6cwrXFADTpoj6NsniBjpRTS3h+cTUQX+bUoLgwhCctKAvb+E3YpDiRSeOHsJumGMEPzUbtmHMN+6drUSHu61RQCkFYuSMgbXDSPisJkRQUlVF1F1MG41mK4/ukw1KNDyBZ3qEv9F9rMer5wAAO/DL+82qG7294eZQ3eCdjPpA4C2rqgaALKKFOSnpwtqLKyvPzJZ1i9XeBItQjUUXdGwlQBryWPOrsb/tI5xB4IcGdnkp7CLG8cfotoqWYWkWHjDYTeYlwjZNaldl/dMbm3vH0yTzu3eKpYgJjBEs94cJQLw00JNuDvzT7u85OVNTSyQe30E4fd9jW69mN6DKIi+SSYIk89WyndW5cuKMM23qpfS/D2pYSIZKca4RHUe/1RuzdWS7myiYcXGOPx1gL1zai0QtF383hBVdRV5CcCBulsHwltFnJqM+v+ee+vhblx056/eyaKRZFcsonWqdeYDqVhfDcBsseblPRIic7kVLesFi9qRLXMnVMR2GxbupqpyGBt2rNvKpEdtm0kCAwEAAaNWMFQwDgYDVR0PAQH/BAQDAgeAMBMGA1UdJQQMMAoGCCsGAQUFBwMEMAwGA1UdEwEB/wQCMAAwHwYDVR0jBBgwFoAUHnfVXq+C+As5Cibf/oX1s0sHO5UwDQYJKoZIhvcNAQENBQADggIBABTH5rINCWEfh9qgtjkyBvZJWT3zQj9t7TBhWlPqCUafjzkqCfSzN0TLAz/6PAlUk/DdQfhIqMNk8mH1WRAlX8ddbWc365di4PRlfEZqGJ4ygYuihA/f9oxPAmKfxFvoe7MBITM3wXg3Bq60hTYRR3Ofd+ZYwMzgCbL9r2/RFKPfOdnVJuIq/kMMZPzM/ijEBXKNwaPREj4+cEdFqiHnGInhXL069OKCeZSPDItWBjK6eJl1cFISednP/6edZxe7vmjEFy2JoCjJCUUVgsp5B29TeqvZ9xCFb/BLRrbpIlkBPXUARzcLqUnyjTdQjRpOCG1TAzl9ceE/Hd67D1lvW97C9xswYnVOaJej9IjNeRy9RwVBFRh3onFZnnUSA/fN2bC997gdNarqGccFULohpi7nPPNxsKwQrt5KCY0YCmH1qdcGziuh3J43S09DhbMilVYXoO5og5Fm6rnaG7nevf2gxutaOjNUFUjlfyQ34BGdRuXp44zPthax7z/hYXh42RytJX3eGNV2oPm33F2N3yO/SuYRo/Vi+filks4FsUZb/S5wVxwolYuix4fwY4H0XzXAxrAJx81X+JJnq1E99FbuI1/0NLsBkFpTyCvlP0E2gMbtDPAZDdBJ/OrxlR6Ek0TDPgfQh/h+jCxkX0s8C6/hZ0Q8e0i968h3KfppyLVYWQboMIIG5DCCBMygAwIBAgIUNN5FqgUkXrbFtk6LWpVFrO65RW0wDQYJKoZIhvcNAQELBQAwbTELMAkGA1UEBhMCQVUxDDAKBgNVBAgTA05TVzEPMA0GA1UEBxMGU3lkbmV5MRMwEQYDVQQKEwpDYW52YSBQcm9kMRAwDgYDVQQLEwdTaWduaW5nMRgwFgYDVQQDEw9TaWduaW5nIENBIFByb2QwHhcNMjYwMzE4MDUzOTI0WhcNMjYwNDE3MDUzOTU0WjAiMSAwHgYDVQQDExdTaWduaW5nIEludGVybWVkaWF0ZSBDQTCCAiIwDQYJKoZIhvcNAQEBBQADggIPADCCAgoCggIBAMF6mj5R4a2N0xlLh8hh2b47gkUP1kJLehxzUBlzcYNkG2PjbPFe2PlZJVePDmNfxEl/vTbie+6zC8sT0QyQs2lw/mjL8fibs2rsPXpJk3IpZpa86QAkEb3d8KggJ42t08LsGVJsG3W+VQUhw2uXmTNK0DeQ+ZW5PJTPSqp0W3aUuxopfixljrKhuLHVkJXQYMlCY76ZA2TdZK6FaM549/WRPcHoUj2ch1nswLsJYyBMRO5aDdIt+TCPhrZ3McE5V2K5k+JNKf5PCy0H0clh5DGAx4fal8G6ejes/K44i951B41m2BNkxA1DnanXvgxlIPwQUupJXZ1mpdJnZdVG1GKl6/Cw5E3ZCg0TDODC9LVSiCN4vX+5zKZsmdLBemdAi6+S5R+u0v4PDDhPfndgCXr6bXQQ8zGcss9b41u2Kdk58pktlkyNZDFdNEY33KHwO8QJ4corwGSogpJ6xUgG2IjeuyHzv9ITK1ZLfZ8WZpfTlKC8eUzO3OKnFg288dw/OPNtuP9IJCwqaVGp2KTTsa1NHYTOqgVyHbCYgRzPG8LP9STqTHR02jdib3j0De5jtXveZPu7eLEPAOwhATBkIQj/1NwzOKLihJw8KyY+mEYxNsltdYOwzXafyudFcJNQEYGFXrckExImWbiHds+rST7HNOmjKhfH+02HwC2qhLjtAgMBAAGjggHFMIIBwTAOBgNVHQ8BAf8EBAMCAQYwEgYDVR0TAQH/BAgwBgEB/wIBADAdBgNVHQ4EFgQUHnfVXq+C+As5Cibf/oX1s0sHO5UwHwYDVR0jBBgwFoAUEVVux6d1aMuNR/onO3uuB9JaAUIwgdcGCCsGAQUFBwEBBIHKMIHHMEwGCCsGAQUFBzABhkBodHRwczovL3BraS5jYW52YS1pbnRlcm5hbC5jb20vdjEvcGtpL2NhbnZhLXByb2QvbDEvc2lnbmluZy9vY3NwMHcGCCsGAQUFBzAChmtodHRwczovL3BraS5jYW52YS1pbnRlcm5hbC5jb20vdjEvcGtpL2NhbnZhLXByb2QvbDEvc2lnbmluZy9pc3N1ZXIvZmZhODJlNDAtMmUyYi1iNjhlLTNhYTItYTYzNWJjNDUzZWNjL2RlcjCBgAYDVR0fBHkwdzB1oHOgcYZvaHR0cHM6Ly9wa2kuY2FudmEtaW50ZXJuYWwuY29tL3YxL3BraS9jYW52YS1wcm9kL2wxL3NpZ25pbmcvaXNzdWVyL2ZmYTgyZTQwLTJlMmItYjY4ZS0zYWEyLWE2MzViYzQ1M2VjYy9jcmwvZGVyMA0GCSqGSIb3DQEBCwUAA4ICAQBAQRJDkcyUoQ9IKtBjti1/UaE5JROVJP9/YCb6KP//HcrWl2ctobxV2a4ex57bqrBiwHVDsjyKDweypnnnnIX0jKpqh+inCdlLrePmJe6K8OAL9BxajjixZsH1fw3y7yHRLD5A4Yfr+ogGsQUe16Zq2VXlp3BSgTAV0/CQcNBAdTS+CY7NHcEogWL994RVv8ld+xivcEnU8Sn+lGiK1tq1aYqgk30dw72XaGnE2iTCe51QlTdpozZL7SbFoGGrm/XifaVjx/1jiraLJbPac7L+jA8GGRB0foDzeubgbC5g1Stl3nC/g4pTP6ayn39KkE1qV4Rip4/k8Kn1ktrclnJhqcY5yfU7ByQyn1dCqsbReKCkvCDus8jeSOuLRYu4NhKIL9PJElE8f6BX40BdwRZzKzMxtXUhVchoCZT890h8Fc2SSJUVMbAJ/zynNgNlzfxex/MEvcE51UbB/53jrGijJX3K7XoYQ4n924bK1khNJdkv9GpyrSDVHYq6ESOj6S+FpNdi0vdaLq10b3Hv0+emQCziP+uqzdBAd4JtJdS8rqcwCJa3l+1NaMWiPqxh9VkZWzeu2VKaMztZmNAwpqW55iatXP/2NtiXmNcIwIMUIWKJyIhCzHlXcxWO9wk5d3DUMlnoxCuW2OwY/8jFDe0LORvepbuFUcle5e+cNSawVlkGSjCCBkYwggQuoAMCAQICEQDwUHcpJysnvjxnHTJW0yMdMA0GCSqGSIb3DQEBDQUAMIGBMQswCQYDVQQGEwJBVTETMBEGA1UECgwKQ2FudmEgUHJvZDEXMBUGA1UECwwOQ2xvdWQgUGxhdGZvcm0xDDAKBgNVBAgMA05TVzElMCMGA1UEAwwcQ2FudmEgUHJvZCBSb290IENBIEdsb2JhbCBHMjEPMA0GA1UEBwwGU3lkbmV5MB4XDTI2MDIxNDAzMjIwN1oXDTI2MDgxMzAzMjIwN1owbTELMAkGA1UEBhMCQVUxDDAKBgNVBAgTA05TVzEPMA0GA1UEBxMGU3lkbmV5MRMwEQYDVQQKEwpDYW52YSBQcm9kMRAwDgYDVQQLEwdTaWduaW5nMRgwFgYDVQQDEw9TaWduaW5nIENBIFByb2QwggIiMA0GCSqGSIb3DQEBAQUAA4ICDwAwggIKAoICAQCpg8y2jTW1J0IAv89OpFDo6iAg0BQ3C+tmmWEfRZyviSSxXRkbz+jTy2Z5qx1ZpKcOywXY795hD8kI6t1HHLs4kDzHA1NZ58jPjqIhNhkT01vLjfDQ92DLnIEAB9ac3CBjFjum2q0kKwDiMlWwHdfAHUIOGHS7o3EJjuMgX6sOdmbbZckzJD3FWMxBRCEoV/Ic4R/yeSkgz6LN4Yb/KS5NymsmzcjcHO3bcF6fV/nfcax7e8PoIX1JwEV8ULsfYkKowHtYcG1suI3zH2Ao/OxDIYeLFLykB5pVA9zKWl223oiovEygbRJ6ajM+1AMlG+CyxFIneQg8yjE7udgULNbc8bqilF8m2GPCBIs5OkA/9xzkOpW2LUMN79a8oJN9wWZPDZVZFNuH7GK9pjJEbk7sq+KAW/vpIwgsA+Upvcx2HWe01H7DeFJ0LEBL+2dOsb+BK9MWMqHc5a+yWaYVJLTVFjPtFv1QDKzkm4IziBm0IIeIRVbwgPh5VVXc5z/3tj7Jc/FjY+XqLq7Zilqel6w9dhOh86ar2hvqLBfYMOfoJrjwx0KfB+EFHbrEoDn7KqoqwFTqm8Y3sxG+jNqbunwnQG30mFttLhw8llrmuCHqOcq39rBA/nQIrOjFmSNQOlif0o4234dEws+aXYkHRwz+LuMz5UmraHlZuXx9oAidmwIDAQABo4HLMIHIMBIGA1UdEwEB/wQIMAYBAf8CAQEwHwYDVR0jBBgwFoAU6UnqmN2caVR9jX+PoWzIxynkrXMwHQYDVR0OBBYEFBFVbsendWjLjUf6Jzt7rgfSWgFCMA4GA1UdDwEB/wQEAwIBhjBiBgNVHR8EWzBZMFegVaBThlFodHRwOi8vZDF1YWRuMHBqc2loOG0uY2xvdWRmcm9udC5uZXQvY3JsLzBhMGFhNDUyLTlmMjctNDg2My1hZWRhLWVkOTc2ZjIwZDhiYi5jcmwwDQYJKoZIhvcNAQENBQADggIBABdm/Q5HRrsuEL+B+vwNc+GacQHck8DmbmVFIG8602Te7fejzViT3stNnAurNoTaP2Hhcige2trnV1E4FBG3CHcBQmmXU20AANM3nGeqxLDXXn0F5aXJo6BKsNnN6uyrFKdWM9bseK09tZRM9xIICAiJyfXo7uoIgfxhqV4BDmyLEP0dqxYz+r97Fck0FtBZxYijOEHHdol6SXRTw00sJkin1iBRB4HaQwTPXM3ZvmyA97DH7fvpR51LnuBePay/dvDW1FCbV+02sWFUOybHz30aYboCow0pRGRudwJSej0zPPmS8H2DuIv2bQqZs+YFVQtYh4JyBo93L6jwLiJJVumLeMGjMXE/Wu4VmFXWZk1H5eLDmYwIoW7v8pBzJyD86Z9xK2Aw4gIO1cX3//hYg5DgNIHwzn3DnVF1mlYMzN6dgv5LrZBCNArL8lkjlbJPg0fQQim0xxvMcwQVUbRkau7Og+ipmVatmua+vcPG0f8i1EPs/r8HyLxsN59KAI2fpqc51stWZcx0GaJ5Q2YU3aEb3I3dZe7FrLPYcJqJfbNMQ4CoIKDKbeCBV9R1QGXXd4I4l/d1lc4lBGvrtg42p+yCld6TlX+gusUYUFqKqrJMRfDdX/2KomW47EM2hBNrXKNdT0L7ffBQ1iT0DZYEQ2jHer/Gzy/aSGVpDJu6QR47oWNwYWRZKO8AAAAAAAAAAAAAAAAAAAAAAAAAAAAAAAAAAAAAAAAAAAAAAAAAAAAAAAAAAAAAAAAAAAAAAAAAAAAAAAAAAAAAAAAAAAAAAAAAAAAAAAAAAAAAAAAAAAAAAAAAAAAAAAAAAAAAAAAAAAAAAAAAAAAAAAAAAAAAAAAAAAAAAAAAAAAAAAAAAAAAAAAAAAAAAAAAAAAAAAAAAAAAAAAAAAAAAAAAAAAAAAAAAAAAAAAAAAAAAAAAAAAAAAAAAAAAAAAAAAAAAAAAAAAAAAAAAAAAAAAAAAAAAAAAAAAAAAAAAAAAAAAAAAAAAAAAAAAAAAAAAAAAAAAAAAAAAAAAAAAAAAAAAAAAAAAAAAAAAAAAAAAAAAAAAAAAAAAAAAAAAAAAAAAAAAAAAAAAAAAAAAAAAAAAAAAAAAAAAAAAAAAAAAAAAAAAAAAAAAAAAAAAAAAAAAAAAAAAAAAAAAAAAAAAAAAAAAAAAAAAAAAAAAAAAAAAAAAAAAAAAAAAAAAAAAAAAAAAAAAAAAAAAAAAAAAAAAAAAAAAAAAAAAAAAAAAAAAAAAAAAAAAAAAAAAAAAAAAAAAAAAAAAAAAAAAAAAAAAAAAAAAAAAAAAAAAAAAAAAAAAAAAAAAAAAAAAAAAAAAAAAAAAAAAAAAAAAAAAAAAAAAAAAAAAAAAAAAAAAAAAAAAAAAAAAAAAAAAAAAAAAAAAAAAAAAAAAAAAAAAAAAAAAAAAAAAAAAAAAAAAAAAAAAAAAAAAAAAAAAAAAAAAAAAAAAAAAAAAAAAAAAAAAAAAAAAAAAAAAAAAAAAAAAAAAAAAAAAAAAAAAAAAAAAAAAAAAAAAAAAAAAAAAAAAAAAAAAAAAAAAAAAAAAAAAAAAAAAAAAAAAAAAAAAAAAAAAAAAAAAAAAAAAAAAAAAAAAAAAAAAAAAAAAAAAAAAAAAAAAAAAAAAAAAAAAAAAAAAAAAAAAAAAAAAAAAAAAAAAAAAAAAAAAAAAAAAAAAAAAAAAAAAAAAAAAAAAAAAAAAAAAAAAAAAAAAAAAAAAAAAAAAAAAAAAAAAAAAAAAAAAAAAAAAAAAAAAAAAAAAAAAAAAAAAAAAAAAAAAAAAAAAAAAAAAAAAAAAAAAAAAAAAAAAAAAAAAAAAAAAAAAAAAAAAAAAAAAAAAAAAAAAAAAAAAAAAAAAAAAAAAAAAAAAAAAAAAAAAAAAAAAAAAAAAAAAAAAAAAAAAAAAAAAAAAAAAAAAAAAAAAAAAAAAAAAAAAAAAAAAAAAAAAAAAAAAAAAAAAAAAAAAAAAAAAAAAAAAAAAAAAAAAAAAAAAAAAAAAAAAAAAAAAAAAAAAAAAAAAAAAAAAAAAAAAAAAAAAAAAAAAAAAAAAAAAAAAAAAAAAAAAAAAAAAAAAAAAAAAAAAAAAAAAAAAAAAAAAAAAAAAAAAAAAAAAAAAAAAAAAAAAAAAAAAAAAAAAAAAAAAAAAAAAAAAAAAAAAAAAAAAAAAAAAAAAAAAAAAAAAAAAAAAAAAAAAAAAAAAAAAAAAAAAAAAAAAAAAAAAAAAAAAAAAAAAAAAAAAAAAAAAAAAAAAAAAAAAAAAAAAAAAAAAAAAAAAAAAAAAAAAAAAAAAAAAAAAAAAAAAAAAAAAAAAAAAAAAAAAAAAAAAAAAAAAAAAAAAAAAAAAAAAAAAAAAAAAAAAAAAAAAAAAAAAAAAAAAAAAAAAAAAAAAAAAAAAAAAAAAAAAAAAAAAAAAAAAAAAAAAAAAAAAAAAAAAAAAAAAAAAAAAAAAAAAAAAAAAAAAAAAAAAAAAAAAAAAAAAAAAAAAAAAAAAAAAAAAAAAAAAAAAAAAAAAAAAAAAAAAAAAAAAAAAAAAAAAAAAAAAAAAAAAAAAAAAAAAAAAAAAAAAAAAAAAAAAAAAAAAAAAAAAAAAAAAAAAAAAAAAAAAAAAAAAAAAAAAAAAAAAAAAAAAAAAAAAAAAAAAAAAAAAAAAAAAAAAAAAAAAAAAAAAAAAAAAAAAAAAAAAAAAAAAAAAAAAAAAAAAAAAAAAAAAAAAAAAAAAAAAAAAAAAAAAAAAAAAAAAAAAAAAAAAAAAAAAAAAAAAAAAAAAAAAAAAAAAAAAAAAAAAAAAAAAAAAAAAAAAAAAAAAAAAAAAAAAAAAAAAAAAAAAAAAAAAAAAAAAAAAAAAAAAAAAAAAAAAAAAAAAAAAAAAAAAAAAAAAAAAAAAAAAAAAAAAAAAAAAAAAAAAAAAAAAAAAAAAAAAAAAAAAAAAAAAAAAAAAAAAAAAAAAAAAAAAAAAAAAAAAAAAAAAAAAAAAAAAAAAAAAAAAAAAAAAAAAAAAAAAAAAAAAAAAAAAAAAAAAAAAAAAAAAAAAAAAAAAAAAAAAAAAAAAAAAAAAAAAAAAAAAAAAAAAAAAAAAAAAAAAAAAAAAAAAAAAAAAAAAAAAAAAAAAAAAAAAAAAAAAAAAAAAAAAAAAAAAAAAAAAAAAAAAAAAAAAAAAAAAAAAAAAAAAAAAAAAAAAAAAAAAAAAAAAAAAAAAAAAAAAAAAAAAAAAAAAAAAAAAAAAAAAAAAAAAAAAAAAAAAAAAAAAAAAAAAAAAAAAAAAAAAAAAAAAAAAAAAAAAAAAAAAAAAAAAAAAAAAAAAAAAAAAAAAAAAAAAAAAAAAAAAAAAAAAAAAAAAAAAAAAAAAAAAAAAAAAAAAAAAAAAAAAAAAAAAAAAAAAAAAAAAAAAAAAAAAAAAAAAAAAAAAAAAAAAAAAAAAAAAAAAAAAAAAAAAAAAAAAAAAAAAAAAAAAAAAAAAAAAAAAAAAAAAAAAAAAAAAAAAAAAAAAAAAAAAAAAAAAAAAAAAAAAAAAAAAAAAAAAAAAAAAAAAAAAAAAAAAAAAAAAAAAAAAAAAAAAAAAAAAAAAAAAAAAAAAAAAAAAAAAAAAAAAAAAAAAAAAAAAAAAAAAAAAAAAAAAAAAAAAAAAAAAAAAAAAAAAAAAAAAAAAAAAAAAAAAAAAAAAAAAAAAAAAAAAAAAAAAAAAAAAAAAAAAAAAAAAAAAAAAAAAAAAAAAAAAAAAAAAAAAAAAAAAAAAAAAAAAAAAAAAAAAAAAAAAAAAAAAAAAAAAAAAAAAAAAAAAAAAAAAAAAAAAAAAAAAAAAAAAAAAAAAAAAAAAAAAAAAAAAAAAAAAAAAAAAAAAAAAAAAAAAAAAAAAAAAAAAAAAAAAAAAAAAAAAAAAAAAAAAAAAAAAAAAAAAAAAAAAAAAAAAAAAAAAAAAAAAAAAAAAAAAAAAAAAAAAAAAAAAAAAAAAAAAAAAAAAAAAAAAAAAAAAAAAAAAAAAAAAAAAAAAAAAAAAAAAAAAAAAAAAAAAAAAAAAAAAAAAAAAAAAAAAAAAAAAAAAAAAAAAAAAAAAAAAAAAAAAAAAAAAAAAAAAAAAAAAAAAAAAAAAAAAAAAAAAAAAAAAAAAAAAAAAAAAAAAAAAAAAAAAAAAAAAAAAAAAAAAAAAAAAAAAAAAAAAAAAAAAAAAAAAAAAAAAAAAAAAAAAAAAAAAAAAAAAAAAAAAAAAAAAAAAAAAAAAAAAAAAAAAAAAAAAAAAAAAAAAAAAAAAAAAAAAAAAAAAAAAAAAAAAAAAAAAAAAAAAAAAAAAAAAAAAAAAAAAAAAAAAAAAAAAAAAAAAAAAAAAAAAAAAAAAAAAAAAAAAAAAAAAAAAAAAAAAAAAAAAAAAAAAAAAAAAAAAAAAAAAAAAAAAAAAAAAAAAAAAAAAAAAAAAAAAAAAAAAAAAAAAAAAAAAAAAAAAAAAAAAAAAAAAAAAAAAAAAAAAAAAAAAAAAAAAAAAAAAAAAAAAAAAAAAAAAAAAAAAAAAAAAAAAAAAAAAAAAAAAAAAAAAAAAAAAAAAAAAAAAAAAAAAAAAAAAAAAAAAAAAAAAAAAAAAAAAAAAAAAAAAAAAAAAAAAAAAAAAAAAAAAAAAAAAAAAAAAAAAAAAAAAAAAAAAAAAAAAAAAAAAAAAAAAAAAAAAAAAAAAAAAAAAAAAAAAAAAAAAAAAAAAAAAAAAAAAAAAAAAAAAAAAAAAAAAAAAAAAAAAAAAAAAAAAAAAAAAAAAAAAAAAAAAAAAAAAAAAAAAAAAAAAAAAAAAAAAAAAAAAAAAAAAAAAAAAAAAAAAAAAAAAAAAAAAAAAAAAAAAAAAAAAAAAAAAAAAAAAAAAAAAAAAAAAAAAAAAAAAAAAAAAAAAAAAAAAAAAAAAAAAAAAAAAAAAAAAAAAAAAAAAAAAAAAAAAAAAAAAAAAAAAAAAAAAAAAAAAAAAAAAAAAAAAAAAAAAAAAAAAAAAAAAAAAAAAAAAAAAAAAAAAAAAAAAAAAAAAAAAAAAAAAAAAAAAAAAAAAAAAAAAAAAAAAAAAAAAAAAAAAAAAAAAAAAAAAAAAAAAAAAAAAAAAAAAAAAAAAAAAAAAAAAAAAAAAAAAAAAAAAAAAAAAAAAAAAAAAAAAAAAAAAAAAAAAAAAAAAAAAAAAAAAAAAAAAAAAAAAAAAAAAAAAAAAAAAAAAAAAAAAAAAAAAAAAAAAAAAAAAAAAAAAAAAAAAAAAAAAAAAAAAAAAAAAAAAAAAAAAAAAAAAAAAAAAAAAAAAAAAAAAAAAAAAAAAAAAAAAAAAAAAAAAAAAAAAAAAAAAAAAAAAAAAAAAAAAAAAAAAAAAAAAAAAAAAAAAAAAAAAAAAAAAAAAAAAAAAAAAAAAAAAAAAAAAAAAAAAAAAAAAAAAAAAAAAAAAAAAAAAAAAAAAAAAAAAAAAAAAAAAAAAAAAAAAAAAAAAAAAAAAAAAAAAAAAAAAAAAAAAAAAAAAAAAAAAAAAAAAAAAAAAAAAAAAAAAAAAAAAAAAAAAAAAAAAAAAAAAAAAAAAAAAAAAAAAAAAAAAAAAAAAAAAAAAAAAAAAAAAAAAAAAAAAAAAAAAAAAAAAAAAAAAAAAAAAAAAAAAAAAAAAAAAAAAAAAAAAAAAAAAAAAAAAAAAAAAAAAAAAAAAAAAAAAAAAAAAAAAAAAAAAAAAAAAAAAAAAAAAAAAAAAAAAAAAAAAAAAAAAAAAAAAAAAAAAAAAAAAAAAAAAAAAAAAAAAAAAAAAAAAAAAAAAAAAAAAAAAAAAAAAAAAAAAAAAAAAAAAAAAAAAAAAAAAAAAAAAAAAAAAAAAAAAAAAAAAAAAAAAAAAAAAAAAAAAAAAAAAAAAAAAAAAAAAAAAAAAAAAAAAAAAAAAAAAAAAAAAAAAAAAAAAAAAAAAAAAAAAAAAAAAAAAAAAAAAAAAAAAAAAAAAAAAAAAAAAAAAAAAAAAAAAAAAAAAAAAAAAAAAAAAAAAAAAAAAAAAAAAAAAAAAAAAAAAAAAAAAAAAAAAAAAAAAAAAAAAAAAAAAAAAAAAAAAAAAAAAAAAAAAAAAAAAAAAAAAAAAAAAAAAAAAAAAAAAAAAAAAAAAAAAAAAAAAAAAAAAAAAAAAAAAAAAAAAAAAAAAAAAAAAAAAAAAAAAAAAAAAAAAAAAAAAAAAAAAAAAAAAAAAAAAAAAAAAAAAAAAAAAAAAAAAAAAAAAAAAAAAAAAAAAAAAAAAAAAAAAAAAAAAAAAAAAAAAAAAAAAAAAAAAAAAAAAAAAAAAAAAAAAAAAAAAAAAAAAAAAAAAAAAAAAAAAAAAAAAAAAAAAAAAAAAAAAAAAAAAAAAAAAAAAAAAAAAAAAAAAAAAAAAAAAAAAAAAAAAAAAAAAAAAAAAAAAAAAAAAAAAAAAAAAAAAAAAAAAAAAAAAAAAAAAAAAAAAAAAAAAAAAAAAAAAAAAAAAAAAAAAAAAAAAAAAAAAAAAAAAAAAAAAAAAAAAAAAAAAAAAAAAAAAAAAAAAAAAAAAAAAAAAAAAAAAAAAAAAAAAAAAAAAAAAAAAAAAAAAAAAAAAAAAAAAAAAAAAAAAAAAAAAAAAAAAAAAAAAAAAAAAAAAAAAAAAAAAAAAAAAAAAAAAAAAAAAAAAAAAAAAAAAAAAAAAAAAAAAAAAAAAAAAAAAAAAAAAAAAAAAAAAAAAAAAAAAAAAAAAAAAAAAAAAAAAAAAAAAAAAAAAAAAAAAAAAAAAAAAAAAAAAAAAAAAAAAAAAAAAAAAAAAAAAAAAAAAAAAAAAAAAAAAAAAAAAAAAAAAAAAAAAAAAAAAAAAAAAAAAAAAAAAAAAAAAAAAAAAAAAAAAAAAAAAAAAAAAAAAAAAAAAAAAAAAAAAAAAAAAAAAAAAAAAAAAAAAAAAAAAAAAAAAAAAAAAAAAAAAAAAAAAAAAAAAAAAAAAAAAAAAAAAAAAAAAAAAAAAAAAAAAAAAAAAAAAAAAAAAAAAAAAAAAAAAAAAAAAAAAAAAAAAAAAAAAAAAAAAAAAAAAAAAAAAAAAAAAAAAAAAAAAAAAAAAAAAAAAAAAAAAAAAAAAAAAAAAAAAAAAAAAAAAAAAAAAAAAAAAAAAAAAAAAAAAAAAAAAAAAAAAAAAAAAAAAAAAAAAAAAAAAAAAAAAAAAAAAAAAAAAAAAAAAAAAAAAAAAAAAAAAAAAAAAAAAAAAAAAAAAAAAAAAAAAAAAAAAAAAAAAAAAAAAAAAAAAAAAAAAAAAAAAAAAAAAAAAAAAAAAAAAAAAAAAAAAAAAAAAAAAAAAAAAAAAAAAAAAAAAAAAAAAAAAAAAAAAAAAAAAAAAAAAAAAAAAAAAAAAAAAAAAAAAAAAAAAAAAAAAAAAAAAAAAAAAAAAAAAAAAAAAAAAAAAAAAAAAAAAAAAAAAAAAAAAAAAAAAAAAAAAAAAAAAAAAAAAAAAAAAAAAAAAAAAAAAAAAAAAAAAAAAAAAAAAAAAAAAAAAAAAAAAAAAAAAAAAAAAAAAAAAAAAAAAAAAAAAAAAAAAAAAAAAAAAAAAAAAAAAAAAAAAAAAAAAAAAAAAAAAAAAAAAAAAAAAAAAAAAAAAAAAAAAAAAAAAAAAAAAAAAAAAAAAAAAAAAAAAAAAAAAAAAAAAAAAAAAAAAAAAAAAAAAAAAAAAAAAAAAAAAAAAAAAAAAAAAAAAAAAAAAAAAAAAAAAAAAAAAAAAAAAAAAAAAAAAAAAAAAAAAAAAAAAAAAAAAAAAAAAAAAAAAAAAAAAAAAAAAAAAAAAAAAAAAAAAAAAAAAAAAAAAAAAAAAAAAAAAAAAAAAAAAAAAAAAAAAAAAAAAAAAAAAAAAAAAAAAAAAAAAAAAAAAAAAAAAAAAAAAAAAAAAAAAAAAAAAAAAAAAAAAAAAAAAAAAAAAAAAAAAAAAAAAAAAAAAAAAAAAAAAAAAAAAAAAAAAAAAAAAAAAAAAAAAAAAAAAAAAAAAAAAAAAAAAAAAAAAAAAAAAAAAAAAAAAAAAAAAAAAAAAAAAAAAAAAAAAAAAAAAAAAAAAAAAAAAAAAAAAAAAAAAAAAAAAAAAAAAAAAAAAAAAAAAAAAAAAAAAAAAAAAAAAAAAAAAAAAAAAAAAAAAAAAAAAAAAAAAAAAAAAAAAAAAAAAAAAAAAAAAAAAAAAAAAAAAAAAAAAAAAAAAAAAAAAAAAAAAAAAAAAAAAAAAAAAAAAAAAAAAAAAAAAAAAAAAAAAAAAAAAAAAAAAAAAAAAAAAAAAAAAAAAAAAAAAAAAAAAAAAAAAAAAAAAAAAAAAAAAAAAAAAAAAAAAAAAAAAAAAAAAAAAAAAAAAAAAAAAAAAAAAAAAAAAAAAAAAAAAAAAAAAAAAAAAAAAAAAAAAAAAAAAAAAAAAAAAAAAAAAAAAAAAAAAAAAAAAAAAAAAAAAAAAAAAAAAAAAAAAAAAAAAAAAAAAAAAAAAAAAAAAAAAAAAAAAAAAAAAAAAAAAAAAAAAAAAAAAAAAAAAAAAAAAAAAAAAAAAAAAAAAAAAAAAAAAAAAAAAAAAAAAAAAAAAAAAAAAAAAAAAAAAAAAAAAAAAAAAAAAAAAAAAAAAAAAAAAAAAAAAAAAAAAAAAAAAAAAAAAAAAAAAAAAAAAAAAAAAAAAAAAAAAAAAAAAAAAAAAAAAAAAAAAAAAAAAAAAAAAAAAAAAAAAAAAAAAAAAAAAAAAAAAAAAAAAAAAAAAAAAAAAAAAAAAAAAAAAAAAAAAAAAAAAAAAAAAAAAAAAAAAAAAAAAAAAAAAAAAAAAAAAAAAAAAAAAAAAAAAAAAAAAAAAAAAAAAAAAAAAAAAAAAAAAAAAAAAAAAAAAAAAAAAAAAAAAAAAAAAAAAAAAAAAAAAAAAAAAAAAAAAAAAAAAAAAAAAAAAAAAAAAAAAAAAAAAAAAAAAAAAAAAAAAAAAAAAAAAAAAAAAAAAAAAAAAAAAAAAAAAAAAAAAAAAAAAAAAAAAAAAAAAAAAAAAAAAAAAAAAAAAAAAAAAAAAAAAAAAAAAAAAAAAAAAAAAAAAAAAAAAAAAAAAAAAAAAAAAAAAAAAAAAAAAAAAAAAAAAAAAAAAAAAAAAAAAAAAAAAAAAAAAAAAAAAAAAAAAAAAAAAAAAAAAAAAAAAAAAAAAAAAAAAAAAAAAAAAAAAAAAAAAAAAAAAAAAAAAAAAAAAAAAAAAAAAAAAAAAAAAAAAAAAAAAAAAAAAAAAAAAAAAAAAAAAAAAAAAAAAAAAAAAAAAAAAAAAAAAAAAAAAAAAAAAAAAAAAAAAAAAAAAAAAAAAAAAAAAAAAAAAAAAAAAAAAAAAAAAAAAAAAAAAAAAAAAAAAAAAAAAAAAAAAAAAAAAAAAAAAAAAAAAAAAAAAAAAAAAAAAAAAAAAAAAAAAAAAAAAAAAAAAAAAAAAAAAAAAAAAAAAAAAAAAAAAAAAAAAAAAAAAAAAAAAAAAAAAAAAAAAAAAAAAAAAAAAAAAAAAAAAAAAAAAAAAAAAAAAAAAAAAAAAAAAAAAAAAAAAAAAAAAAAAAAAAAAAAAAAAAAAAAAAAAAAAAAAAAAAAAAAAAAAAAAAAAAAAAAAAAAAAAAAAAAAAAAAAAAAAAAAAAAAAAAAAAAAAAAAAAAAAAAAAAAAAAAAAAAAAAAAAAAAAAAAAAAAAAAAAAAAAAAAAAAAAAAAAAAAAAAAAAAAAAAAAAAAAAAAAAAAAAAAAAAAAAAAAAAAAAAAAAAAAAAAAAAAAAAAAAAAAAAAAAAAAAAAAAAAAAAAAAAAAAAAAAAAAAAAAAAAAAAAAAAAAAAAAAAAAAAAAAAAAAAAAAAAAAAAAAAAAAAAAAAAAAAAAAAAAAAAAAAAAAAAAAAAAAAAAAAAAAAAAAAAAAAAAAAAAAAAAAAAAAAAAAAAAAAAAAAAAAAAAAAAAAAAAAAAAAAAAAAAAAAAAAAAAAAAAAAAAAAAAAAAAAAAAAAAAAAAAAAAAAAAAAAAAAAAAAAAAAAAAAAAAAAAAAAAAAAAAAAAAAAAAAAAAAAAAAAAAAAAAAAAAAAAAAAAAAAAAAAAAAAAAAAAAAAAAAAAAAAAAAAAAAAAAAAAAAAAAAAAAAAAAAAAAAAAAAAAAAAAAAAAAAAAAAAAAAAAAAAAAAAAAAAAAAAAAAAAAAAAAAAAAAAAAAAAAAAAAAAAAAAAAAAAAAAAAAAAAAAAAAAAAAAAAAAAAAAAAAAAAAAAAAAAAAAAAAAAAAAAAAAAAAAAAAAAAAAAAAAAAAAAAAAAAAAAAAAAAAAAAAAAAAAAAAAAAAAAAAAAAAAAAAAAAAAAAAAAAAAAAAAAAAAAAAAAAAAAAAAAAAAAAAAAAAAAAAAAAAAAAAAAAAAAAAAAAAAAAAAAAAAAAAAAAAAAAAAAAAAAAAAAAAAAAAAAAAAAAAAAAAAAAAAAAAAAAAAAAAAAAAAAAAAAAAAAAAAAAAAAAAAAAAAAAAAAAAAAAAAAAAAAAAAAAAAAAAAAAAAAAAAAAAAAAAAAAAAAAAAAAAAAAAAAAAAAAAAAAAAAAAAAAAAAAAAAAAAAAAAAAAAAAAAAAAAAAAAAAAAAAAAAAAAAAAAAAAAAAAAAAAAAAAAAAAAAAAAAAAAAAAAAAAAAAAAAAAAAAAAAAAAAAAAAAAAAAAAAAAAAAAAAAAAAAAAAAAAAAAAAAAAAAAAAAAAAAAAAAAAAAAAAAAAAAAAAAAAAAAAAAAAAAAAAAAAAAAAAAAAAAAAAAAAAAAAAAAAAAAAAAAAAAAAAAAAAAAAAAAAAAAAAAAAAAAAAAAAAAAAAAAAAAAAAAAAAAAAAAAAAAAAAAAAAAAAAAAAAAAAAAAAAAAAAAAAAAAAAAAAAAAAAAAAAAAAAAAAAAAAAAAAAAAAAAAAAAAAAAAAAAAAAAAAAAAAAAAAAAAAAAAAAAAAAAAAAAAAAAAAAAAAAAAAAAAAAAAAAAAAAAAAAAAAAAAAAAAAAAAAAAAAAAAAAAAAAAAAAAAAAAAAAAAAAAAAAAAAAAAAAAAAAAAAAAAAAAAAAAAAAAAAAAAAAAAAAAAAAAAAAAAAAAAAAAAAAAAAAAAAAAAAAAAAAAAAAAAAAAAAAAAAAAAAAAAAAAAAAAAAAAAAAAAAAAAAAAAAAAAAAAAAAAAAAAAAAAAAAAAAAAAAAAAAAAAAAAAAAAAAAAAAAAAAAAAAAAAAAAAAAAAAAAAAAAAAAAAAAAAAAAAAAAAAAAAAAAAAAAAAAAAAAAAAAAAAAAAAAAAAAAAAAAAAAAAAAAAAAAAAAAAAAAAAAAAAAAAAAAAAAAAAAAAAAAAAAAAAAAAAAAAAAAAAAAAAAAAAAAAAAAAAAAAAAAAAAAAAAAAAAAAAAAAAAAAAAAAAAAAAAAAAAAAAAAAAAAAAAAAAAAAAAAAAAAAAAAAAAAAAAAAAAAAAAAAAAAAAAAAAAAAAAAAAAAAAAAAAAAAAAAAAAAAAAAAAAAAAAAAAAAAAAAAAAAAAAAAAAAAAAAAAAAAAAAAAAAAAAAAAAAAAAAAAAAAAAAAAAAAAAAAAAAAAAAAAAAAAAAAAAAAAAAAAAAAAAAAAAAAAAAAAAAAAAAAAAAAAAAAAAAAAAAAAAAAAAAAAAAAAAAAAAAAAAAAAAAAAAAAAAAAAAAAAAAAAAAAAAAAAAAAAAAAAAAAAAAAAAAAAAAAAAAAAAAAAAAAAAAAAAAAAAAAAAAAAAAAAAAAAAAAAAAAAAAAAAAAAAAAAAAAAAAAAAAAAAAAAAAAAAAAAAAAAAAAAAAAAAAAAAAAAAAAAAAAAAAAAAAAAAAAAAAAAAAAAAAAAAAAAAAAAAAAAAAAAAAAAAAAAAAAAAAAAAAAAAAAAAAAAAAAAAAAAAAAAAAAAAAAAAAAAAAAAAAAAAAAAAAAAAAAAAAAAAAAAAAAAAAAAAAAAAAAAAAAAAAAAAAAAAAAAAAAAAAAAAAAAAAAAAAAAAAAAAAAAAAAAAAAAAAAAAAAAAAAAAAAAAAAAAAAAAAAAAAAAAAAAAAAAAAAAAAAAAAAAAAAAAAAAAAAAAAAAAAAAAAAAAAAAAAAAAAAAAAAAAAAAAAAAAAAAAAAAAAAAAAAAAAAAAAAAAAAAAAAAAAAAAAAAAAAAAAAAAAAAAAAAAAAAAAAAAAAAAAAAAAAAAAAAAAAAAAAAAAAAAAAAAAAAAAAAAAAAAAAAAAAAAAAAAAAAAAAAAAAAAAAAAAAAAAAAAAAAAAAAAAAAAAAAAAAAAAAAAAAAAAAAAAAAAAAAAAAAAAAAAAAAAAAAAAAAAAAAAAAAAAAAAAAAAAAAAAAAAAAAAAAAAAAAAAAAAAAAAAAAAAAAAAAAAAAAAAAAAAAAAAAAAAAAAAAAAAAAAAAAAAAAAAAAAAAAAAAAAAAAAAAAAAAAAAAAAAAAAAAAAAAAAAAAAAAAAAAAAAAAAAAAAAAAAAAAAAAAAAAAAAAAAAAAAAAAAAAAAAAAAAAAAAAAAAAAAAAAAAAAAAAAAAAAAAAAAAAAAAAAAAAAAAAAAAAAAAAAAAAAAAAAAAAAAAAAAAAAAAAAAAAAAAAAAAAAAAAAAAAAAAAAAAAAAAAAAAAAAAAAAAAAAAAAAAAAAAAAAAAAAAAAAAAAAAAAAAAAAAAAAAAAAAAAAAAAAAAAAAAAAAAAAAAAAAAAAAAAAAAAAAAAAAAAAAAAAAAAAAAAAAAAAAAAAAAAAAAAAAAAAAAAAAAAAAAAAAAAAAAAAAAAAAAAAAAAAAAAAAAAAAAAAAAAAAAAAAAAAAAAAAAAAAAAAAAAAAAAAAAAAAAAAAAAAAAAAAAAAAAAAAAAAAAAAAAAAAAAAAAAAAAAAAAAAAAAAAAAAAAAAAAAAAAAAAAAAAAAAAAAAAAAAAAAAAAAAAAAAAAAAAAAAAAAAAAAAAAAAAAAAAAAAAAAAAAAAAAAAAAAAAAAAAAAAAAAAAAAAAAAAAAAAAAAAAAAAAAAAAAAAAAAAAAAAAAAAAAAAAAAAAAAAAAAAAAAAAAAAAAAAAAAAAAAAAAAAAAAAAAAAAAAAAAAAAAAAAAAAAAAAAAAAAAAAAAAAAAAAAAAAAAAAAAAAAAAAAAAAAAAAAAAAAAAAAAAAAAAAAAAAAAAAAAAAAAAAAAAAAAAAAAAAAAAAAAAAAAAAAAAAAAAAAAAAAAAAAAAAAAAAAAAAAAAAAAAAAAAAAAAAAAAAAAAAAAAAAAAAAAAAAAAAAAAAAAAAAAAAAAAAAAAAAAAAAAAAAAAAAAAAAAAAAAAAAAAAAAAAAAAAAAAAAAAAAAAAAAAAAAAAAAAAAAAAAAAAAAAAAAAAAAAAAAAAAAAAAAAAAAAAAAAAAAAAAAAAAAAAAAAAAAAAAAAAAAAAAAAAAAAAAAAAAAAAAAAAAAAAAAAAAAAAAAAAAAAAAAAAAAAAAAAAAAAAAAAAAAAAAAAAAAAAAAAAAAAAAAAAAAAAAAAAAAAAAAAAAAAAAAAAAAAAAAAAAAAAAAAAAAAAAAAAAAAAAAAAAAAAAAAAAAAAAAAAAAAAAAAAAAAAAAAAAAAAAAAAAAAAAAAAAAAAAAAAAAAAAAAAAAAAAAAAAAAAAAAAAAAAAAAAAAAAAAAAAAAAAAAAAAAAAAAAAAAAAAAAAAAAAAAAAAAAAAAAAAAAAAAAAAAAAAAAAAAAAAAAAAAAAAAAAAAAAAAAAAAAAAAAAAAAAAAAAAAAAAAAAAAAAAAAAAAAAAAAAAAAAAAAAAAAAAAAAAAAAAAAAAAAAAAAAAAAAAAAAAAAAAAAAAAAAAAAAAAAAAAAAAAAAAAAAAAAAAAAAAAAAAAAAAAAAAAAAAAAAAAAAAAAAAAAAAAAAAAAAAAAAAAAAAAAAAAAAAAAAAAAAAAAAAAAAAAAAAAAAAAAAAAAAAAAAAAAAAAAAAAAAAAAAAAAAAAAAAAAAAAAAAAAAAAAAAAAAAAAAAAAAAAAAAAAAAAAAAAAAAAAAAAAAAAAAAAAAAAAAAAAAAAAAAAAAAAAAAAAAAAAAAAAAAAAAAAAAAAAAAAAAAAAAAAAAAAAAAAAAAAAAAAAAAAAAAAAAAAAAAAAAAAAAAAAAAAAAAAAAAAAAAAAAAAAAAAAAAAAAAAAAAAAAAAAAAAAAAAAAAAAAAAAAAAAAAAAAAAAAAAAAAAAAAAAAAAAAAAAAAAAAAAAAAAAAAAAAAAAAAAAAAAAAAAAAAAAAAAAAAAAAAAAAAAAAAAAAAAAAAAAAAAAAAAAAAAAAAAAAAAAAAAAAAAAAAAAAAAAAAAAAAAAAAAAAAAAAAAAAAAAAAAAAAAAAAAAAAAAAAAAAAAAAAAAAAAAAAAAAAAAAAAAAAAAAAAAAAAAAAAAAAAAAAAAAAAAAAAAAAAAAAAAAAAAAAAAAAAAAAAAAAAAAAAAAAAAAAAAAAAAAAAAAAAAAAAAAAAAAAAAAAAAAAAAAAAAAAAAAAAAAAAAAAAAAAAAAAAAAAAAAAAAAAAAAAAAAAAAAAAAAAAAAAAAAAAAAAAAAAAAAAAAAAAAAAAAAAAAAAAAAAAAAAAAAAAAAAAAAAAAAAAAAAAAAAAAAAAAAAAAAAAAAAAAAAAAAAAAAAAAAAAAAAAAAAAAAAAAAAAAAAAAAAAAAAAAAAAAAAAAAAAAAAAAAAAAAAAAAAAAAAAAAAAAAAAAAAAAAAAAAAAAAAAAAAAAAAAAAAAAAAAAAAAAAAAAAAAAAAAAAAD2WQIASRKSdSLmPUW41GtJz/yBkr3iL8ktXtmI66F0FfzSlE6JpEanEYpQpHYjDk7IE06IykugA1ulrourbaeZlElopDqN4DRvvVZMjvIHjRzoPCRvOhBHSu3PRKqp8Ew4uEkEeXV9/pMTVIzmQJa/MSAlAW9SD+n1iBrN1v6JCkovYhoW+DP0gBg0TUvI5F+8nMzL2CePgFbUV5ASF65p7WStxa1NO81rMver8BQY6zIi4eqUrUUNKWWmFwviSnGkymgiv2nHeowqGkaeeq79ohJBIZihdhAkeUfwLGb93pvwFsMs2VJifb1911ujSxocB9zu8hYvzop2YudxEKWO99wwC1lU6vg4RqMeZIwg8OIQQ678n14rLFXVlMpjk7/DVL68DBHnnich2EN4+BQZD+tz+Uq3bQUGday6BH3Xby6yh0TZRdEz01H9sgWJku8QuPNXdEoe39BK9UBow5inZT7X3inKWhKimclm+8KQm9A6AoB+v2VIrLN5s93vS3uhPURtXUL6LvLpdhO4ecr4SHHWogiwmlpInNTpj+A5jytHVQLUGMT9mDLr9tbjvSMz5F7GppcIJL0zICBBW8JpFVHsehR6bg3Cf6dcrZ1c3PEdBoJwvSyC5drb47cnbL60rAiY8lJYecx/GV2xWH8bU/zmejk8CSFuWv7aTYWFIrgJ32c=</c2pa:manifest><ContainsAiGeneratedContent>Yes</ContainsAiGeneratedContent></metadata><defs><g/><clipPath id="08425e326b"><path d="M 268.210938 99.910156 L 1231.960938 99.910156 L 1231.960938 1003.660156 L 268.210938 1003.660156 Z M 268.210938 99.910156 " clip-rule="nonzero"/></clipPath><clipPath id="00b5c9754a"><rect x="0" width="966" y="0" height="300"/></clipPath></defs><g clip-path="url(#08425e326b)"><g class="brand-color" transform="matrix(1.381348, 0, 0, 1.381348, 41.328385, -150.966679)"><g transform="translate(0,1024) scale(0.1,-0.1)"><path d="M1913 8231 c-79 -37 -115 -128 -152 -390 -34 -237 -44 -427 -38 -706
9 -370 34 -597 103 -929 78 -373 179 -679 327 -989 155 -324 376 -656 585
-880 l68 -72 17 -140 c37 -304 137 -576 287 -788 70 -97 242 -269 341 -339 35
-25 141 -95 235 -155 208 -134 358 -246 619 -464 242 -201 334 -268 440 -319
219 -106 455 -117 676 -34 131 49 253 135 499 350 270 236 362 304 766 564
339 219 529 454 644 799 40 117 82 324 95 460 l7 74 76 81 c391 418 701 1000
853 1601 156 616 198 1271 119 1838 -34 242 -68 354 -122 404 -57 53 -156 67
-259 37 -228 -68 -741 -413 -1169 -787 -277 -242 -702 -687 -1097 -1147 l-159
-185 -79 1 c-44 1 -204 5 -355 9 -253 7 -490 -1 -621 -21 l-36 -6 -163 188
c-547 631 -879 966 -1300 1315 -291 241 -719 522 -929 610 -99 42 -214 50
-278 20z m322 -465 c266 -146 711 -557 1012 -933 295 -370 527 -782 597 -1064
28 -114 27 -117 -75 -227 -97 -103 -191 -223 -235 -299 -62 -105 -97 -263 -59
-263 8 0 77 62 152 138 326 327 688 510 1143 579 139 21 508 24 645 5 256 -35
438 -88 642 -187 221 -106 434 -264 622 -459 40 -42 79 -76 87 -76 19 0 18 52
-2 121 -36 123 -129 262 -297 444 -53 58 -97 111 -97 119 0 30 50 207 85 301
130 351 476 850 857 1235 231 234 490 447 663 545 88 50 109 54 124 26 38 -71
62 -468 42 -706 -49 -587 -224 -1223 -471 -1710 -137 -271 -280 -476 -486
-694 l-88 -94 -1 -266 c-1 -284 -10 -362 -62 -540 -83 -288 -249 -476 -613
-696 -222 -134 -339 -222 -622 -469 -199 -174 -336 -250 -522 -291 -111 -25
-278 -16 -401 20 -171 50 -242 98 -592 398 -135 116 -311 241 -543 385 -365
226 -509 433 -581 832 -19 105 -23 165 -24 378 l-2 252 -74 78 c-372 388 -648
924 -823 1592 -104 399 -150 730 -150 1075 0 267 21 431 60 470 20 20 18 20
89 -19z M3977 4431 c-127 -42 -217 -130 -239 -234 -9 -43 -8 -66 5 -125 27
-119 71 -196 167 -292 135 -136 256 -184 465 -185 140 0 213 19 272 70 l38 33
-1 88 c-3 179 -112 424 -243 546 -95 89 -149 110 -291 115 -93 2 -126 -1 -173
-16z m281 -236 c38 -41 43 -92 13 -119 -44 -40 -141 33 -141 105 0 66 72 74
128 14z M5950 4430 c-193 -72 -377 -363 -396 -630 -5 -64 -2 -80 15 -107 63
-99 306 -132 507 -69 90 29 207 100 265 162 120 127 184 316 149 439 -20 70
-92 144 -182 185 -67 31 -82 34 -188 37 -96 3 -124 0 -170 -17z m142 -207 c31
-28 23 -77 -19 -118 -42 -41 -72 -51 -102 -36 -47 26 -28 115 33 152 38 23 64
24 88 2z M5008 3270 c-179 -30 -268 -122 -237 -245 9 -36 29 -64 87 -126 93
-99 229 -209 258 -209 45 0 283 206 329 284 44 77 40 151 -13 209 -65 73 -266
113 -424 87z"/></g></g></g><g transform="matrix(1, 0, 0, 1, 268, 926)"><g clip-path="url(#00b5c9754a)"><g class="brand-color" fill-opacity="1"><g transform="translate(0.209502, 237.63022)"><g><path d="M 149.203125 -15.6875 L 149.203125 0 L 27.9375 0 L 27.9375 -171.5 L 145.53125 -171.5 L 145.53125 -155.8125 L 46.0625 -155.8125 L 46.0625 -94.8125 L 134.75 -94.8125 L 134.75 -79.375 L 46.0625 -79.375 L 46.0625 -15.6875 Z M 149.203125 -15.6875 "/></g></g></g><g class="brand-color" fill-opacity="1"><g transform="translate(160.43575, 237.63022)"><g><path d="M 92.125 -7.84375 C 88.851562 -4.90625 84.804688 -2.660156 79.984375 -1.109375 C 75.171875 0.441406 70.148438 1.21875 64.921875 1.21875 C 52.835938 1.21875 43.523438 -2.046875 36.984375 -8.578125 C 30.453125 -15.109375 27.1875 -24.335938 27.1875 -36.265625 L 27.1875 -114.171875 L 4.171875 -114.171875 L 4.171875 -128.875 L 27.1875 -128.875 L 27.1875 -157.046875 L 44.59375 -157.046875 L 44.59375 -128.875 L 83.796875 -128.875 L 83.796875 -114.171875 L 44.59375 -114.171875 L 44.59375 -37.234375 C 44.59375 -29.554688 46.507812 -23.71875 50.34375 -19.71875 C 54.1875 -15.71875 59.703125 -13.71875 66.890625 -13.71875 C 70.484375 -13.71875 73.953125 -14.289062 77.296875 -15.4375 C 80.640625 -16.582031 83.539062 -18.210938 86 -20.328125 Z M 92.125 -7.84375 "/></g></g></g><g class="brand-color" fill-opacity="1"><g transform="translate(259.903443, 237.63022)"><g><path d="M 69.328125 -129.84375 C 86.148438 -129.84375 99.050781 -125.632812 108.03125 -117.21875 C 117.019531 -108.8125 121.515625 -96.363281 121.515625 -79.875 L 121.515625 0 L 104.859375 0 L 104.859375 -20.09375 C 100.941406 -13.394531 95.179688 -8.164062 87.578125 -4.40625 C 79.984375 -0.65625 70.960938 1.21875 60.515625 1.21875 C 46.140625 1.21875 34.703125 -2.207031 26.203125 -9.0625 C 17.710938 -15.925781 13.46875 -24.992188 13.46875 -36.265625 C 13.46875 -47.203125 17.425781 -56.019531 25.34375 -62.71875 C 33.269531 -69.414062 45.890625 -72.765625 63.203125 -72.765625 L 104.125 -72.765625 L 104.125 -80.609375 C 104.125 -91.710938 101.019531 -100.160156 94.8125 -105.953125 C 88.601562 -111.753906 79.539062 -114.65625 67.625 -114.65625 C 59.457031 -114.65625 51.613281 -113.304688 44.09375 -110.609375 C 36.582031 -107.921875 30.132812 -104.207031 24.75 -99.46875 L 16.90625 -112.453125 C 23.4375 -118.003906 31.273438 -122.289062 40.421875 -125.3125 C 49.566406 -128.332031 59.203125 -129.84375 69.328125 -129.84375 Z M 63.203125 -12.5 C 73.003906 -12.5 81.414062 -14.742188 88.4375 -19.234375 C 95.46875 -23.722656 100.695312 -30.210938 104.125 -38.703125 L 104.125 -59.78125 L 63.703125 -59.78125 C 41.648438 -59.78125 30.625 -52.101562 30.625 -36.75 C 30.625 -29.238281 33.484375 -23.316406 39.203125 -18.984375 C 44.921875 -14.660156 52.921875 -12.5 63.203125 -12.5 Z M 63.203125 -12.5 "/></g></g></g><g class="brand-color" fill-opacity="1"><g transform="translate(404.450021, 237.63022)"><g><path d="M 90.65625 -129.84375 C 102.738281 -129.84375 113.679688 -127.109375 123.484375 -121.640625 C 133.285156 -116.171875 140.960938 -108.453125 146.515625 -98.484375 C 152.066406 -88.523438 154.84375 -77.175781 154.84375 -64.4375 C 154.84375 -51.53125 152.066406 -40.09375 146.515625 -30.125 C 140.960938 -20.164062 133.328125 -12.453125 123.609375 -6.984375 C 113.890625 -1.515625 102.90625 1.21875 90.65625 1.21875 C 80.195312 1.21875 70.757812 -0.941406 62.34375 -5.265625 C 53.9375 -9.597656 47.039062 -15.925781 41.65625 -24.25 L 41.65625 47.53125 L 24.25 47.53125 L 24.25 -128.875 L 40.921875 -128.875 L 40.921875 -103.390625 C 46.140625 -111.878906 53.035156 -118.410156 61.609375 -122.984375 C 70.191406 -127.554688 79.875 -129.84375 90.65625 -129.84375 Z M 89.421875 -14.203125 C 98.410156 -14.203125 106.578125 -16.285156 113.921875 -20.453125 C 121.273438 -24.617188 127.03125 -30.539062 131.1875 -38.21875 C 135.351562 -45.894531 137.4375 -54.632812 137.4375 -64.4375 C 137.4375 -74.238281 135.351562 -82.9375 131.1875 -90.53125 C 127.03125 -98.125 121.273438 -104.039062 113.921875 -108.28125 C 106.578125 -112.53125 98.410156 -114.65625 89.421875 -114.65625 C 80.273438 -114.65625 72.066406 -112.53125 64.796875 -108.28125 C 57.535156 -104.039062 51.820312 -98.125 47.65625 -90.53125 C 43.488281 -82.9375 41.40625 -74.238281 41.40625 -64.4375 C 41.40625 -54.632812 43.488281 -45.894531 47.65625 -38.21875 C 51.820312 -30.539062 57.535156 -24.617188 64.796875 -20.453125 C 72.066406 -16.285156 80.273438 -14.203125 89.421875 -14.203125 Z M 89.421875 -14.203125 "/></g></g></g><g class="brand-color" fill-opacity="1"><g transform="translate(570.556082, 237.63022)"><g><path d="M 58.796875 1.21875 C 48.347656 1.21875 38.34375 -0.289062 28.78125 -3.3125 C 19.226562 -6.332031 11.757812 -10.128906 6.375 -14.703125 L 14.203125 -28.421875 C 19.597656 -24.171875 26.378906 -20.695312 34.546875 -18 C 42.710938 -15.3125 51.207031 -13.96875 60.03125 -13.96875 C 71.789062 -13.96875 80.484375 -15.800781 86.109375 -19.46875 C 91.742188 -23.144531 94.5625 -28.332031 94.5625 -35.03125 C 94.5625 -39.769531 93.007812 -43.484375 89.90625 -46.171875 C 86.8125 -48.867188 82.894531 -50.910156 78.15625 -52.296875 C 73.414062 -53.691406 67.128906 -55.039062 59.296875 -56.34375 C 48.835938 -58.3125 40.421875 -60.316406 34.046875 -62.359375 C 27.679688 -64.398438 22.253906 -67.867188 17.765625 -72.765625 C 13.273438 -77.660156 11.03125 -84.4375 11.03125 -93.09375 C 11.03125 -103.875 15.519531 -112.691406 24.5 -119.546875 C 33.476562 -126.410156 45.972656 -129.84375 61.984375 -129.84375 C 70.316406 -129.84375 78.644531 -128.738281 86.96875 -126.53125 C 95.300781 -124.332031 102.164062 -121.4375 107.5625 -117.84375 L 99.953125 -103.875 C 89.335938 -111.226562 76.679688 -114.90625 61.984375 -114.90625 C 50.878906 -114.90625 42.507812 -112.941406 36.875 -109.015625 C 31.238281 -105.097656 28.421875 -99.957031 28.421875 -93.59375 C 28.421875 -88.6875 30.007812 -84.765625 33.1875 -81.828125 C 36.375 -78.890625 40.335938 -76.722656 45.078125 -75.328125 C 49.816406 -73.941406 56.351562 -72.515625 64.6875 -71.046875 C 74.96875 -69.085938 83.210938 -67.128906 89.421875 -65.171875 C 95.628906 -63.210938 100.9375 -59.863281 105.34375 -55.125 C 109.757812 -50.382812 111.96875 -43.851562 111.96875 -35.53125 C 111.96875 -24.257812 107.269531 -15.316406 97.875 -8.703125 C 88.488281 -2.085938 75.460938 1.21875 58.796875 1.21875 Z M 58.796875 1.21875 "/></g></g></g><g class="brand-color" fill-opacity="1"><g transform="translate(690.358246, 237.63022)"><g><path d="M 72.03125 -64.6875 L 41.65625 -36.75 L 41.65625 0 L 24.25 0 L 24.25 -181.796875 L 41.65625 -181.796875 L 41.65625 -58.5625 L 118.578125 -128.875 L 140.140625 -128.875 L 85.015625 -76.1875 L 145.28125 0 L 123.96875 0 Z M 72.03125 -64.6875 "/></g></g></g><g class="brand-color" fill-opacity="1"><g transform="translate(830.984859, 237.63022)"><g><path d="M 132.546875 -128.875 L 68.109375 15.4375 C 62.878906 27.519531 56.832031 36.09375 49.96875 41.15625 C 43.113281 46.21875 34.867188 48.75 25.234375 48.75 C 19.023438 48.75 13.222656 47.769531 7.828125 45.8125 C 2.441406 43.851562 -2.207031 40.914062 -6.125 37 L 1.953125 24.015625 C 8.492188 30.546875 16.335938 33.8125 25.484375 33.8125 C 31.359375 33.8125 36.378906 32.175781 40.546875 28.90625 C 44.710938 25.644531 48.59375 20.09375 52.1875 12.25 L 57.8125 -0.25 L 0.25 -128.875 L 18.375 -128.875 L 66.890625 -19.359375 L 115.390625 -128.875 Z M 132.546875 -128.875 "/></g></g></g></g></g></svg>